<?xml version="1.0" encoding="UTF-8"?>
<svg width="372px" height="287px" viewBox="0 0 372 287" version="1.1" xmlns="http://www.w3.org/2000/svg" xmlns:xlink="http://www.w3.org/1999/xlink">
    <title>Group</title>
    <g id="Page-1" stroke="none" stroke-width="1" fill="none" fill-rule="evenodd">
        <g id="Artboard" transform="translate(-180.000000, -129.000000)">
            <g id="Group" transform="translate(180.773000, 130.000000)">
                <line x1="45.727" y1="0.615196078" x2="45.727" y2="250.384804" id="Line" stroke="#FFFFFF" stroke-width="2" stroke-linecap="square"></line>
                <line x1="207.727" y1="88.5" x2="207.727" y2="412.5" id="Line-Copy" stroke="#FFFFFF" stroke-width="2" stroke-linecap="square" transform="translate(207.727000, 250.500000) rotate(-90.000000) translate(-207.727000, -250.500000) "></line>
                <path d="M-48.315,130 L-48.315,129.186 L-50.999,129.186 L-50.999,122.333 L-52,122.333 L-52,130 L-48.315,130 Z M-44.641,130.099 C-43.9223333,130.099 -43.321,129.9175 -42.837,129.5545 C-42.353,129.1915 -42.0303333,128.720333 -41.869,128.141 L-41.869,128.141 L-42.947,128.141 C-43.0643333,128.478333 -43.2678333,128.747833 -43.5575,128.9495 C-43.8471667,129.151167 -44.2083333,129.252 -44.641,129.252 C-45.169,129.252 -45.6181667,129.085167 -45.9885,128.7515 C-46.3588333,128.417833 -46.5623333,127.954 -46.599,127.36 L-46.599,127.36 L-41.781,127.36 C-41.759,127.147333 -41.748,126.945667 -41.748,126.755 C-41.748,126.205 -41.8671667,125.711833 -42.1055,125.2755 C-42.3438333,124.839167 -42.683,124.496333 -43.123,124.247 C-43.563,123.997667 -44.069,123.873 -44.641,123.873 C-45.2276667,123.873 -45.7465,123.9995 -46.1975,124.2525 C-46.6485,124.5055 -46.9986667,124.866667 -47.248,125.336 C-47.4973333,125.805333 -47.622,126.351667 -47.622,126.975 C-47.622,127.598333 -47.4936667,128.1465 -47.237,128.6195 C-46.9803333,129.0925 -46.6265,129.457333 -46.1755,129.714 C-45.7245,129.970667 -45.213,130.099 -44.641,130.099 Z M-42.782,126.546 L-46.588,126.546 C-46.5366667,125.974 -46.3331667,125.526667 -45.9775,125.204 C-45.6218333,124.881333 -45.191,124.72 -44.685,124.72 C-44.333,124.72 -44.0121667,124.7915 -43.7225,124.9345 C-43.4328333,125.0775 -43.2036667,125.2865 -43.035,125.5615 C-42.8663333,125.8365 -42.782,126.164667 -42.782,126.546 L-42.782,126.546 Z M-37.612,130 L-35.247,123.972 L-36.314,123.972 L-38.184,129.076 L-40.065,123.972 L-41.143,123.972 L-38.778,130 L-37.612,130 Z M-31.65,130.099 C-30.9313333,130.099 -30.33,129.9175 -29.846,129.5545 C-29.362,129.1915 -29.0393333,128.720333 -28.878,128.141 L-28.878,128.141 L-29.956,128.141 C-30.0733333,128.478333 -30.2768333,128.747833 -30.5665,128.9495 C-30.8561667,129.151167 -31.2173333,129.252 -31.65,129.252 C-32.178,129.252 -32.6271667,129.085167 -32.9975,128.7515 C-33.3678333,128.417833 -33.5713333,127.954 -33.608,127.36 L-33.608,127.36 L-28.79,127.36 C-28.768,127.147333 -28.757,126.945667 -28.757,126.755 C-28.757,126.205 -28.8761667,125.711833 -29.1145,125.2755 C-29.3528333,124.839167 -29.692,124.496333 -30.132,124.247 C-30.572,123.997667 -31.078,123.873 -31.65,123.873 C-32.2366667,123.873 -32.7555,123.9995 -33.2065,124.2525 C-33.6575,124.5055 -34.0076667,124.866667 -34.257,125.336 C-34.5063333,125.805333 -34.631,126.351667 -34.631,126.975 C-34.631,127.598333 -34.5026667,128.1465 -34.246,128.6195 C-33.9893333,129.0925 -33.6355,129.457333 -33.1845,129.714 C-32.7335,129.970667 -32.222,130.099 -31.65,130.099 Z M-29.791,126.546 L-33.597,126.546 C-33.5456667,125.974 -33.3421667,125.526667 -32.9865,125.204 C-32.6308333,124.881333 -32.2,124.72 -31.694,124.72 C-31.342,124.72 -31.0211667,124.7915 -30.7315,124.9345 C-30.4418333,125.0775 -30.2126667,125.2865 -30.044,125.5615 C-29.8753333,125.8365 -29.791,126.164667 -29.791,126.546 L-29.791,126.546 Z M-26.436,130 L-26.436,121.86 L-27.437,121.86 L-27.437,130 L-26.436,130 Z M-19.165,130.099 C-18.593,130.099 -18.0723333,129.970667 -17.603,129.714 C-17.1336667,129.457333 -16.7615,129.0925 -16.4865,128.6195 C-16.2115,128.1465 -16.074,127.598333 -16.074,126.975 C-16.074,126.351667 -16.2078333,125.805333 -16.4755,125.336 C-16.7431667,124.866667 -17.108,124.5055 -17.57,124.2525 C-18.032,123.9995 -18.549,123.873 -19.121,123.873 C-19.693,123.873 -20.21,123.9995 -20.672,124.2525 C-21.134,124.5055 -21.4988333,124.8685 -21.7665,125.3415 C-22.0341667,125.8145 -22.168,126.359 -22.168,126.975 C-22.168,127.598333 -22.0378333,128.1465 -21.7775,128.6195 C-21.5171667,129.0925 -21.1578333,129.457333 -20.6995,129.714 C-20.2411667,129.970667 -19.7296667,130.099 -19.165,130.099 Z M-19.165,129.219 C-19.5243333,129.219 -19.8543333,129.1365 -20.155,128.9715 C-20.4556667,128.8065 -20.6958333,128.555333 -20.8755,128.218 C-21.0551667,127.880667 -21.145,127.466333 -21.145,126.975 C-21.145,126.491 -21.0533333,126.080333 -20.87,125.743 C-20.6866667,125.405667 -20.4428333,125.1545 -20.1385,124.9895 C-19.8341667,124.8245 -19.4986667,124.742 -19.132,124.742 C-18.7726667,124.742 -18.439,124.8245 -18.131,124.9895 C-17.823,125.1545 -17.5736667,125.405667 -17.383,125.743 C-17.1923333,126.080333 -17.097,126.491 -17.097,126.975 C-17.097,127.459 -17.1941667,127.869667 -17.3885,128.207 C-17.5828333,128.544333 -17.8376667,128.797333 -18.153,128.966 C-18.4683333,129.134667 -18.8056667,129.219 -19.165,129.219 Z M-13.566,130 L-13.566,124.797 L-12.301,124.797 L-12.301,123.972 L-13.566,123.972 L-13.566,123.543 C-13.566,123.147 -13.4761667,122.862833 -13.2965,122.6905 C-13.1168333,122.518167 -12.807,122.432 -12.367,122.432 L-12.367,122.432 L-12.367,121.596 C-13.137,121.596 -13.6961667,121.751833 -14.0445,122.0635 C-14.3928333,122.375167 -14.567,122.868333 -14.567,123.543 L-14.567,123.543 L-14.567,123.972 L-15.348,123.972 L-15.348,124.797 L-14.567,124.797 L-14.567,130 L-13.566,130 Z M-7.197,130 L-7.197,126.667 C-7.197,126.036333 -7.04116667,125.556 -6.7295,125.226 C-6.41783333,124.896 -5.998,124.731 -5.47,124.731 C-4.94933333,124.731 -4.53866667,124.8905 -4.238,125.2095 C-3.93733333,125.5285 -3.787,125.988667 -3.787,126.59 L-3.787,126.59 L-3.787,130 L-2.797,130 L-2.797,126.447 C-2.797,125.889667 -2.9015,125.416667 -3.1105,125.028 C-3.3195,124.639333 -3.60733333,124.347833 -3.974,124.1535 C-4.34066667,123.959167 -4.75133333,123.862 -5.206,123.862 C-5.63866667,123.862 -6.02916667,123.946333 -6.3775,124.115 C-6.72583333,124.283667 -6.999,124.522 -7.197,124.83 L-7.197,124.83 L-7.197,121.86 L-8.198,121.86 L-8.198,130 L-7.197,130 Z M1.317,130.099 C1.83766667,130.099 2.29416667,129.9835 2.6865,129.7525 C3.07883333,129.5215 3.374,129.23 3.572,128.878 L3.572,128.878 L3.572,130 L4.584,130 L4.584,123.972 L3.572,123.972 L3.572,125.072 C3.38133333,124.727333 3.09166667,124.441333 2.703,124.214 C2.31433333,123.986667 1.856,123.873 1.328,123.873 C0.792666667,123.873 0.306833333,124.001333 -0.1295,124.258 C-0.565833333,124.514667 -0.908666667,124.875833 -1.158,125.3415 C-1.40733333,125.807167 -1.532,126.348 -1.532,126.964 C-1.532,127.572667 -1.40733333,128.115333 -1.158,128.592 C-0.908666667,129.068667 -0.567666667,129.439 -0.135,129.703 C0.297666667,129.967 0.781666667,130.099 1.317,130.099 Z M1.526,129.219 C1.152,129.219 0.811,129.129167 0.503,128.9495 C0.195,128.769833 -0.0506666667,128.5095 -0.234,128.1685 C-0.417333333,127.8275 -0.509,127.426 -0.509,126.964 C-0.509,126.509333 -0.417333333,126.113333 -0.234,125.776 C-0.0506666667,125.438667 0.195,125.182 0.503,125.006 C0.811,124.83 1.152,124.742 1.526,124.742 C1.9,124.742 2.24283333,124.831833 2.5545,125.0115 C2.86616667,125.191167 3.11366667,125.449667 3.297,125.787 C3.48033333,126.124333 3.572,126.520333 3.572,126.975 C3.572,127.429667 3.48033333,127.8275 3.297,128.1685 C3.11366667,128.5095 2.86616667,128.769833 2.5545,128.9495 C2.24283333,129.129167 1.9,129.219 1.526,129.219 Z M7.279,132.86 L7.279,128.889 C7.48433333,129.233667 7.78316667,129.5215 8.1755,129.7525 C8.56783333,129.9835 9.02066667,130.099 9.534,130.099 C10.0693333,130.099 10.5551667,129.967 10.9915,129.703 C11.4278333,129.439 11.7706667,129.068667 12.02,128.592 C12.2693333,128.115333 12.394,127.572667 12.394,126.964 C12.394,126.348 12.2693333,125.807167 12.02,125.3415 C11.7706667,124.875833 11.4278333,124.514667 10.9915,124.258 C10.5551667,124.001333 10.0693333,123.873 9.534,123.873 C9.01333333,123.873 8.55683333,123.9885 8.1645,124.2195 C7.77216667,124.4505 7.477,124.738333 7.279,125.083 L7.279,125.083 L7.279,123.972 L6.278,123.972 L6.278,132.86 L7.279,132.86 Z M9.325,129.219 C8.95833333,129.219 8.61916667,129.129167 8.3075,128.9495 C7.99583333,128.769833 7.7465,128.5095 7.5595,128.1685 C7.3725,127.8275 7.279,127.429667 7.279,126.975 C7.279,126.527667 7.3725,126.1335 7.5595,125.7925 C7.7465,125.4515 7.99583333,125.191167 8.3075,125.0115 C8.61916667,124.831833 8.95833333,124.742 9.325,124.742 C9.699,124.742 10.0418333,124.83 10.3535,125.006 C10.6651667,125.182 10.9126667,125.438667 11.096,125.776 C11.2793333,126.113333 11.371,126.509333 11.371,126.964 C11.371,127.426 11.2793333,127.8275 11.096,128.1685 C10.9126667,128.5095 10.6651667,128.769833 10.3535,128.9495 C10.0418333,129.129167 9.699,129.219 9.325,129.219 Z M14.715,132.86 L14.715,128.889 C14.9203333,129.233667 15.2191667,129.5215 15.6115,129.7525 C16.0038333,129.9835 16.4566667,130.099 16.97,130.099 C17.5053333,130.099 17.9911667,129.967 18.4275,129.703 C18.8638333,129.439 19.2066667,129.068667 19.456,128.592 C19.7053333,128.115333 19.83,127.572667 19.83,126.964 C19.83,126.348 19.7053333,125.807167 19.456,125.3415 C19.2066667,124.875833 18.8638333,124.514667 18.4275,124.258 C17.9911667,124.001333 17.5053333,123.873 16.97,123.873 C16.4493333,123.873 15.9928333,123.9885 15.6005,124.2195 C15.2081667,124.4505 14.913,124.738333 14.715,125.083 L14.715,125.083 L14.715,123.972 L13.714,123.972 L13.714,132.86 L14.715,132.86 Z M16.761,129.219 C16.3943333,129.219 16.0551667,129.129167 15.7435,128.9495 C15.4318333,128.769833 15.1825,128.5095 14.9955,128.1685 C14.8085,127.8275 14.715,127.429667 14.715,126.975 C14.715,126.527667 14.8085,126.1335 14.9955,125.7925 C15.1825,125.4515 15.4318333,125.191167 15.7435,125.0115 C16.0551667,124.831833 16.3943333,124.742 16.761,124.742 C17.135,124.742 17.4778333,124.83 17.7895,125.006 C18.1011667,125.182 18.3486667,125.438667 18.532,125.776 C18.7153333,126.113333 18.807,126.509333 18.807,126.964 C18.807,127.426 18.7153333,127.8275 18.532,128.1685 C18.3486667,128.5095 18.1011667,128.769833 17.7895,128.9495 C17.4778333,129.129167 17.135,129.219 16.761,129.219 Z M21.667,122.993 C21.8503333,122.993 22.0061667,122.927 22.1345,122.795 C22.2628333,122.663 22.327,122.501667 22.327,122.311 C22.327,122.120333 22.2628333,121.959 22.1345,121.827 C22.0061667,121.695 21.8503333,121.629 21.667,121.629 C21.4763333,121.629 21.315,121.695 21.183,121.827 C21.051,121.959 20.985,122.120333 20.985,122.311 C20.985,122.501667 21.051,122.663 21.183,122.795 C21.315,122.927 21.4763333,122.993 21.667,122.993 Z M22.151,130 L22.151,123.972 L21.15,123.972 L21.15,130 L22.151,130 Z M24.857,130 L24.857,126.667 C24.857,126.036333 25.0128333,125.556 25.3245,125.226 C25.6361667,124.896 26.056,124.731 26.584,124.731 C27.1046667,124.731 27.5153333,124.8905 27.816,125.2095 C28.1166667,125.5285 28.267,125.988667 28.267,126.59 L28.267,126.59 L28.267,130 L29.257,130 L29.257,126.447 C29.257,125.611 29.0296667,124.971167 28.575,124.5275 C28.1203333,124.083833 27.5263333,123.862 26.793,123.862 C26.3823333,123.862 26.0065,123.946333 25.6655,124.115 C25.3245,124.283667 25.055,124.522 24.857,124.83 L24.857,124.83 L24.857,123.972 L23.856,123.972 L23.856,130 L24.857,130 Z M33.503,130.099 C34.2216667,130.099 34.823,129.9175 35.307,129.5545 C35.791,129.1915 36.1136667,128.720333 36.275,128.141 L36.275,128.141 L35.197,128.141 C35.0796667,128.478333 34.8761667,128.747833 34.5865,128.9495 C34.2968333,129.151167 33.9356667,129.252 33.503,129.252 C32.975,129.252 32.5258333,129.085167 32.1555,128.7515 C31.7851667,128.417833 31.5816667,127.954 31.545,127.36 L31.545,127.36 L36.363,127.36 C36.385,127.147333 36.396,126.945667 36.396,126.755 C36.396,126.205 36.2768333,125.711833 36.0385,125.2755 C35.8001667,124.839167 35.461,124.496333 35.021,124.247 C34.581,123.997667 34.075,123.873 33.503,123.873 C32.9163333,123.873 32.3975,123.9995 31.9465,124.2525 C31.4955,124.5055 31.1453333,124.866667 30.896,125.336 C30.6466667,125.805333 30.522,126.351667 30.522,126.975 C30.522,127.598333 30.6503333,128.1465 30.907,128.6195 C31.1636667,129.0925 31.5175,129.457333 31.9685,129.714 C32.4195,129.970667 32.931,130.099 33.503,130.099 Z M35.362,126.546 L31.556,126.546 C31.6073333,125.974 31.8108333,125.526667 32.1665,125.204 C32.5221667,124.881333 32.953,124.72 33.459,124.72 C33.811,124.72 34.1318333,124.7915 34.4215,124.9345 C34.7111667,125.0775 34.9403333,125.2865 35.109,125.5615 C35.2776667,125.8365 35.362,126.164667 35.362,126.546 L35.362,126.546 Z M39.85,130.099 C40.2826667,130.099 40.6658333,130.023833 40.9995,129.8735 C41.3331667,129.723167 41.5916667,129.516 41.775,129.252 C41.9583333,128.988 42.05,128.691 42.05,128.361 C42.0426667,127.994333 41.9418333,127.697333 41.7475,127.47 C41.5531667,127.242667 41.3203333,127.072167 41.049,126.9585 C40.7776667,126.844833 40.4256667,126.729333 39.993,126.612 C39.6483333,126.516667 39.3788333,126.4305 39.1845,126.3535 C38.9901667,126.2765 38.8288333,126.173833 38.7005,126.0455 C38.5721667,125.917167 38.508,125.754 38.508,125.556 C38.508,125.306667 38.6143333,125.105 38.827,124.951 C39.0396667,124.797 39.3256667,124.72 39.685,124.72 C40.0736667,124.72 40.3835,124.815333 40.6145,125.006 C40.8455,125.196667 40.972,125.449667 40.994,125.765 L40.994,125.765 L41.995,125.765 C41.9656667,125.178333 41.7456667,124.716333 41.335,124.379 C40.9243333,124.041667 40.3853333,123.873 39.718,123.873 C39.2853333,123.873 38.9003333,123.948167 38.563,124.0985 C38.2256667,124.248833 37.9653333,124.452333 37.782,124.709 C37.5986667,124.965667 37.507,125.248 37.507,125.556 C37.507,125.944667 37.6078333,126.258167 37.8095,126.4965 C38.0111667,126.734833 38.2531667,126.9145 38.5355,127.0355 C38.8178333,127.1565 39.1826667,127.275667 39.63,127.393 C40.1213333,127.517667 40.4843333,127.644167 40.719,127.7725 C40.9536667,127.900833 41.071,128.097 41.071,128.361 C41.071,128.617667 40.961,128.830333 40.741,128.999 C40.521,129.167667 40.2203333,129.252 39.839,129.252 C39.4283333,129.252 39.0965,129.156667 38.8435,128.966 C38.5905,128.775333 38.4493333,128.529667 38.42,128.229 L38.42,128.229 L37.386,128.229 C37.408,128.595667 37.5253333,128.920167 37.738,129.2025 C37.9506667,129.484833 38.2403333,129.704833 38.607,129.8625 C38.9736667,130.020167 39.388,130.099 39.85,130.099 Z M45.592,130.099 C46.0246667,130.099 46.4078333,130.023833 46.7415,129.8735 C47.0751667,129.723167 47.3336667,129.516 47.517,129.252 C47.7003333,128.988 47.792,128.691 47.792,128.361 C47.7846667,127.994333 47.6838333,127.697333 47.4895,127.47 C47.2951667,127.242667 47.0623333,127.072167 46.791,126.9585 C46.5196667,126.844833 46.1676667,126.729333 45.735,126.612 C45.3903333,126.516667 45.1208333,126.4305 44.9265,126.3535 C44.7321667,126.2765 44.5708333,126.173833 44.4425,126.0455 C44.3141667,125.917167 44.25,125.754 44.25,125.556 C44.25,125.306667 44.3563333,125.105 44.569,124.951 C44.7816667,124.797 45.0676667,124.72 45.427,124.72 C45.8156667,124.72 46.1255,124.815333 46.3565,125.006 C46.5875,125.196667 46.714,125.449667 46.736,125.765 L46.736,125.765 L47.737,125.765 C47.7076667,125.178333 47.4876667,124.716333 47.077,124.379 C46.6663333,124.041667 46.1273333,123.873 45.46,123.873 C45.0273333,123.873 44.6423333,123.948167 44.305,124.0985 C43.9676667,124.248833 43.7073333,124.452333 43.524,124.709 C43.3406667,124.965667 43.249,125.248 43.249,125.556 C43.249,125.944667 43.3498333,126.258167 43.5515,126.4965 C43.7531667,126.734833 43.9951667,126.9145 44.2775,127.0355 C44.5598333,127.1565 44.9246667,127.275667 45.372,127.393 C45.8633333,127.517667 46.2263333,127.644167 46.461,127.7725 C46.6956667,127.900833 46.813,128.097 46.813,128.361 C46.813,128.617667 46.703,128.830333 46.483,128.999 C46.263,129.167667 45.9623333,129.252 45.581,129.252 C45.1703333,129.252 44.8385,129.156667 44.5855,128.966 C44.3325,128.775333 44.1913333,128.529667 44.162,128.229 L44.162,128.229 L43.128,128.229 C43.15,128.595667 43.2673333,128.920167 43.48,129.2025 C43.6926667,129.484833 43.9823333,129.704833 44.349,129.8625 C44.7156667,130.020167 45.13,130.099 45.592,130.099 Z M61.7787578,128.345703 L64.0990703,126.025391 L61.7787578,123.705078 L61.7787578,125.62793 L55.4838359,125.62793 L55.4838359,126.422852 L61.7787578,126.422852 L61.7787578,128.345703 Z" id="Levelofhappiness→" fill="#FFFFFF" fill-rule="nonzero" transform="translate(6.049535, 127.228000) rotate(-90.000000) translate(-6.049535, -127.228000) "></path>
                <polygon id="1" fill="#FFFFFF" fill-rule="nonzero" points="39.381 238 39.381 231.493 37.689 231.493 37.689 232.24 38.553 232.24 38.553 238"></polygon>
                <path d="M39.84,212.928 L39.84,212.244 L36.744,212.244 C37.332,211.77 37.815,211.3545 38.193,210.9975 C38.571,210.6405 38.9085,210.2265 39.2055,209.7555 C39.5025,209.2845 39.651,208.8 39.651,208.302 C39.651,207.702 39.4695,207.231 39.1065,206.889 C38.7435,206.547 38.253,206.376 37.635,206.376 C37.029,206.376 36.534,206.559 36.15,206.925 C35.766,207.291 35.562,207.81 35.538,208.482 L35.538,208.482 L36.33,208.482 C36.348,208.056 36.4695,207.7155 36.6945,207.4605 C36.9195,207.2055 37.236,207.078 37.644,207.078 C38.064,207.078 38.3685,207.1905 38.5575,207.4155 C38.7465,207.6405 38.841,207.948 38.841,208.338 C38.841,208.752 38.6925,209.1735 38.3955,209.6025 C38.0985,210.0315 37.734,210.4425 37.302,210.8355 C36.87,211.2285 36.273,211.731 35.511,212.343 L35.511,212.343 L35.511,212.928 L39.84,212.928 Z" id="2" fill="#FFFFFF" fill-rule="nonzero"></path>
                <path d="M37.617,188.045 C38.055,188.045 38.43,187.967 38.742,187.811 C39.054,187.655 39.288,187.4405 39.444,187.1675 C39.6,186.8945 39.678,186.587 39.678,186.245 C39.678,185.789 39.564,185.42 39.336,185.138 C39.108,184.856 38.799,184.667 38.409,184.571 L38.409,184.571 L38.409,184.526 C38.751,184.448 39.0285,184.274 39.2415,184.004 C39.4545,183.734 39.561,183.413 39.561,183.041 C39.561,182.723 39.4845,182.438 39.3315,182.186 C39.1785,181.934 38.9535,181.7345 38.6565,181.5875 C38.3595,181.4405 38.007,181.367 37.599,181.367 C36.987,181.367 36.489,181.523 36.105,181.835 C35.721,182.147 35.508,182.579 35.466,183.131 L35.466,183.131 L36.267,183.131 C36.309,182.807 36.444,182.549 36.672,182.357 C36.9,182.165 37.2,182.069 37.572,182.069 C37.956,182.069 38.2515,182.165 38.4585,182.357 C38.6655,182.549 38.769,182.804 38.769,183.122 C38.769,183.494 38.628,183.7685 38.346,183.9455 C38.064,184.1225 37.647,184.214 37.095,184.22 L37.095,184.22 L36.879,184.22 L36.879,184.904 L37.086,184.904 C37.692,184.904 38.145,185.003 38.445,185.201 C38.745,185.399 38.895,185.723 38.895,186.173 C38.895,186.521 38.7855,186.8045 38.5665,187.0235 C38.3475,187.2425 38.028,187.352 37.608,187.352 C37.188,187.352 36.852,187.238 36.6,187.01 C36.348,186.782 36.201,186.488 36.159,186.128 L36.159,186.128 L35.367,186.128 C35.415,186.74 35.643,187.2125 36.051,187.5455 C36.459,187.8785 36.981,188.045 37.617,188.045 Z" id="3" fill="#FFFFFF" fill-rule="nonzero"></path>
                <path d="M39.066,164 L39.066,162.551 L39.966,162.551 L39.966,161.84 L39.066,161.84 L39.066,157.556 L38.085,157.556 L34.926,161.93 L34.926,162.551 L38.256,162.551 L38.256,164 L39.066,164 Z M38.292,161.84 L35.871,161.84 L38.292,158.411 L38.292,161.84 Z" id="4" fill="#FFFFFF" fill-rule="nonzero"></path>
                <path d="M37.473,139.018 C37.965,139.018 38.3775,138.919 38.7105,138.721 C39.0435,138.523 39.291,138.253 39.453,137.911 C39.615,137.569 39.696,137.182 39.696,136.75 C39.696,136.384 39.6285,136.0375 39.4935,135.7105 C39.3585,135.3835 39.135,135.1165 38.823,134.9095 C38.511,134.7025 38.106,134.599 37.608,134.599 C37.296,134.599 37.005,134.6605 36.735,134.7835 C36.465,134.9065 36.261,135.064 36.123,135.256 L36.123,135.256 L36.123,133.204 L39.282,133.204 L39.282,132.484 L35.367,132.484 L35.367,136.156 L36.141,136.156 C36.249,135.892 36.4215,135.6835 36.6585,135.5305 C36.8955,135.3775 37.173,135.301 37.491,135.301 C37.959,135.301 38.313,135.4285 38.553,135.6835 C38.793,135.9385 38.913,136.3 38.913,136.768 C38.913,137.236 38.793,137.6125 38.553,137.8975 C38.313,138.1825 37.956,138.325 37.482,138.325 C37.098,138.325 36.78,138.229 36.528,138.037 C36.276,137.845 36.111,137.578 36.033,137.236 L36.033,137.236 L35.232,137.236 C35.316,137.776 35.553,138.208 35.943,138.532 C36.333,138.856 36.843,139.018 37.473,139.018 Z" id="5" fill="#FFFFFF" fill-rule="nonzero"></path>
                <path d="M37.554,114.018 C38.01,114.018 38.3985,113.922 38.7195,113.73 C39.0405,113.538 39.2805,113.28 39.4395,112.956 C39.5985,112.632 39.678,112.266 39.678,111.858 C39.678,111.18 39.4935,110.649 39.1245,110.265 C38.7555,109.881 38.262,109.689 37.644,109.689 C37.248,109.689 36.8895,109.7775 36.5685,109.9545 C36.2475,110.1315 36.018,110.376 35.88,110.688 C35.874,109.746 36.003,109.0695 36.267,108.6585 C36.531,108.2475 36.93,108.042 37.464,108.042 C38.154,108.042 38.565,108.375 38.697,109.041 L38.697,109.041 L39.453,109.041 C39.393,108.555 39.195,108.153 38.859,107.835 C38.523,107.517 38.061,107.358 37.473,107.358 C35.937,107.358 35.169,108.459 35.169,110.661 C35.169,111.375 35.238,111.975 35.376,112.461 C35.514,112.947 35.757,113.328 36.105,113.604 C36.453,113.88 36.936,114.018 37.554,114.018 Z M37.509,113.334 C37.017,113.334 36.639,113.1915 36.375,112.9065 C36.111,112.6215 35.979,112.251 35.979,111.795 C35.979,111.489 36.0495,111.2295 36.1905,111.0165 C36.3315,110.8035 36.516,110.6445 36.744,110.5395 C36.972,110.4345 37.215,110.382 37.473,110.382 C37.935,110.382 38.286,110.5155 38.526,110.7825 C38.766,111.0495 38.886,111.417 38.886,111.885 C38.886,112.329 38.7615,112.6815 38.5125,112.9425 C38.2635,113.2035 37.929,113.334 37.509,113.334 Z" id="6" fill="#FFFFFF" fill-rule="nonzero"></path>
                <polygon id="7" fill="#FFFFFF" fill-rule="nonzero" points="37.374 89 39.876 83.132 39.876 82.511 35.61 82.511 35.61 83.213 39.084 83.213 36.546 89"></polygon>
                <path d="M37.383,65.18 C37.839,65.18 38.2425,65.1005 38.5935,64.9415 C38.9445,64.7825 39.216,64.5575 39.408,64.2665 C39.6,63.9755 39.696,63.635 39.696,63.245 C39.696,62.843 39.5865,62.4995 39.3675,62.2145 C39.1485,61.9295 38.853,61.73 38.481,61.616 C38.805,61.49 39.06,61.2965 39.246,61.0355 C39.432,60.7745 39.525,60.47 39.525,60.122 C39.525,59.798 39.4425,59.5055 39.2775,59.2445 C39.1125,58.9835 38.8695,58.7765 38.5485,58.6235 C38.2275,58.4705 37.839,58.394 37.383,58.394 C36.927,58.394 36.5385,58.4705 36.2175,58.6235 C35.8965,58.7765 35.655,58.9835 35.493,59.2445 C35.331,59.5055 35.25,59.798 35.25,60.122 C35.25,60.482 35.34,60.788 35.52,61.04 C35.7,61.292 35.958,61.484 36.294,61.616 C35.922,61.724 35.628,61.922 35.412,62.21 C35.196,62.498 35.088,62.843 35.088,63.245 C35.088,63.635 35.184,63.9755 35.376,64.2665 C35.568,64.5575 35.8365,64.7825 36.1815,64.9415 C36.5265,65.1005 36.927,65.18 37.383,65.18 Z M37.383,61.346 C36.987,61.346 36.6645,61.244 36.4155,61.04 C36.1665,60.836 36.042,60.566 36.042,60.23 C36.042,59.858 36.162,59.573 36.402,59.375 C36.642,59.177 36.969,59.078 37.383,59.078 C37.803,59.078 38.133,59.177 38.373,59.375 C38.613,59.573 38.733,59.855 38.733,60.221 C38.733,60.557 38.6085,60.8285 38.3595,61.0355 C38.1105,61.2425 37.785,61.346 37.383,61.346 Z M37.383,64.496 C36.921,64.496 36.5535,64.379 36.2805,64.145 C36.0075,63.911 35.871,63.602 35.871,63.218 C35.871,62.804 36.012,62.4935 36.294,62.2865 C36.576,62.0795 36.939,61.976 37.383,61.976 C37.833,61.976 38.196,62.0825 38.472,62.2955 C38.748,62.5085 38.886,62.816 38.886,63.218 C38.886,63.602 38.751,63.911 38.481,64.145 C38.211,64.379 37.845,64.496 37.383,64.496 Z" id="8" fill="#FFFFFF" fill-rule="nonzero"></path>
                <path d="M37.428,40.009 C37.986,40.009 38.4255,39.88 38.7465,39.622 C39.0675,39.364 39.2955,38.989 39.4305,38.497 C39.5655,38.005 39.633,37.381 39.633,36.625 C39.633,35.545 39.4635,34.732 39.1245,34.186 C38.7855,33.64 38.196,33.367 37.356,33.367 C36.672,33.367 36.144,33.5635 35.772,33.9565 C35.4,34.3495 35.214,34.867 35.214,35.509 C35.214,35.959 35.304,36.343 35.484,36.661 C35.664,36.979 35.9115,37.2205 36.2265,37.3855 C36.5415,37.5505 36.9,37.633 37.302,37.633 C37.662,37.633 37.989,37.5565 38.283,37.4035 C38.577,37.2505 38.787,37.039 38.913,36.769 C38.925,37.693 38.8125,38.35 38.5755,38.74 C38.3385,39.13 37.971,39.325 37.473,39.325 C37.101,39.325 36.8055,39.232 36.5865,39.046 C36.3675,38.86 36.228,38.596 36.168,38.254 L36.168,38.254 L35.412,38.254 C35.46,38.764 35.655,39.184 35.997,39.514 C36.339,39.844 36.816,40.009 37.428,40.009 Z M37.437,36.94 C36.969,36.94 36.612,36.808 36.366,36.544 C36.12,36.28 35.997,35.929 35.997,35.491 C35.997,35.059 36.1215,34.711 36.3705,34.447 C36.6195,34.183 36.954,34.051 37.374,34.051 C37.83,34.051 38.184,34.189 38.436,34.465 C38.688,34.741 38.814,35.104 38.814,35.554 C38.814,35.98 38.685,36.3175 38.427,36.5665 C38.169,36.8155 37.839,36.94 37.437,36.94 Z" id="9" fill="#FFFFFF" fill-rule="nonzero"></path>
                <path d="M33.729,15 L33.729,8.493 L32.037,8.493 L32.037,9.24 L32.901,9.24 L32.901,15 L33.729,15 Z M37.401,15 C38.235,15 38.82,14.709 39.156,14.127 C39.492,13.545 39.66,12.729 39.66,11.679 C39.66,10.647 39.492,9.8415 39.156,9.2625 C38.82,8.6835 38.235,8.394 37.401,8.394 C36.561,8.394 35.973,8.6835 35.637,9.2625 C35.301,9.8415 35.133,10.647 35.133,11.679 C35.133,12.729 35.301,13.545 35.637,14.127 C35.973,14.709 36.561,15 37.401,15 Z M37.401,14.253 C36.993,14.253 36.6825,14.142 36.4695,13.92 C36.2565,13.698 36.1155,13.404 36.0465,13.038 C35.9775,12.672 35.943,12.219 35.943,11.679 C35.943,11.157 35.9775,10.7145 36.0465,10.3515 C36.1155,9.9885 36.2565,9.696 36.4695,9.474 C36.6825,9.252 36.993,9.141 37.401,9.141 C37.803,9.141 38.1105,9.252 38.3235,9.474 C38.5365,9.696 38.6775,9.9885 38.7465,10.3515 C38.8155,10.7145 38.85,11.157 38.85,11.679 C38.85,12.219 38.8155,12.672 38.7465,13.038 C38.6775,13.404 38.5365,13.698 38.3235,13.92 C38.1105,14.142 37.803,14.253 37.401,14.253 Z" id="10" fill="#FFFFFF" fill-rule="nonzero"></path>
                <path d="M167.385,283.054 C167.937,283.054 168.438,282.9295 168.888,282.6805 C169.338,282.4315 169.701,282.0925 169.977,281.6635 C170.253,281.2345 170.415,280.762 170.463,280.246 L170.463,280.246 L170.463,279.616 L167.088,279.616 L167.088,280.282 L169.59,280.282 C169.524,280.906 169.293,281.401 168.897,281.767 C168.501,282.133 167.997,282.316 167.385,282.316 C166.947,282.316 166.5525,282.2155 166.2015,282.0145 C165.8505,281.8135 165.5745,281.527 165.3735,281.155 C165.1725,280.783 165.072,280.351 165.072,279.859 C165.072,279.367 165.1725,278.9335 165.3735,278.5585 C165.5745,278.1835 165.8505,277.8955 166.2015,277.6945 C166.5525,277.4935 166.947,277.393 167.385,277.393 C167.823,277.393 168.207,277.4935 168.537,277.6945 C168.867,277.8955 169.119,278.179 169.293,278.545 L169.293,278.545 L170.274,278.545 C170.04,277.945 169.6665,277.48 169.1535,277.15 C168.6405,276.82 168.051,276.655 167.385,276.655 C166.803,276.655 166.272,276.7915 165.792,277.0645 C165.312,277.3375 164.9325,277.7185 164.6535,278.2075 C164.3745,278.6965 164.235,279.247 164.235,279.859 C164.235,280.471 164.3745,281.02 164.6535,281.506 C164.9325,281.992 165.312,282.3715 165.792,282.6445 C166.272,282.9175 166.803,283.054 167.385,283.054 Z M172.362,283 L172.362,276.34 L171.543,276.34 L171.543,283 L172.362,283 Z M175.782,283.081 C176.208,283.081 176.5815,282.9865 176.9025,282.7975 C177.2235,282.6085 177.465,282.37 177.627,282.082 L177.627,282.082 L177.627,283 L178.455,283 L178.455,278.068 L177.627,278.068 L177.627,278.968 C177.471,278.686 177.234,278.452 176.916,278.266 C176.598,278.08 176.223,277.987 175.791,277.987 C175.353,277.987 174.9555,278.092 174.5985,278.302 C174.2415,278.512 173.961,278.8075 173.757,279.1885 C173.553,279.5695 173.451,280.012 173.451,280.516 C173.451,281.014 173.553,281.458 173.757,281.848 C173.961,282.238 174.24,282.541 174.594,282.757 C174.948,282.973 175.344,283.081 175.782,283.081 Z M175.953,282.361 C175.647,282.361 175.368,282.2875 175.116,282.1405 C174.864,281.9935 174.663,281.7805 174.513,281.5015 C174.363,281.2225 174.288,280.894 174.288,280.516 C174.288,280.144 174.363,279.82 174.513,279.544 C174.663,279.268 174.864,279.058 175.116,278.914 C175.368,278.77 175.647,278.698 175.953,278.698 C176.259,278.698 176.5395,278.7715 176.7945,278.9185 C177.0495,279.0655 177.252,279.277 177.402,279.553 C177.552,279.829 177.627,280.153 177.627,280.525 C177.627,280.897 177.552,281.2225 177.402,281.5015 C177.252,281.7805 177.0495,281.9935 176.7945,282.1405 C176.5395,282.2875 176.259,282.361 175.953,282.361 Z M181.587,283.081 C181.941,283.081 182.2545,283.0195 182.5275,282.8965 C182.8005,282.7735 183.012,282.604 183.162,282.388 C183.312,282.172 183.387,281.929 183.387,281.659 C183.381,281.359 183.2985,281.116 183.1395,280.93 C182.9805,280.744 182.79,280.6045 182.568,280.5115 C182.346,280.4185 182.058,280.324 181.704,280.228 C181.422,280.15 181.2015,280.0795 181.0425,280.0165 C180.8835,279.9535 180.7515,279.8695 180.6465,279.7645 C180.5415,279.6595 180.489,279.526 180.489,279.364 C180.489,279.16 180.576,278.995 180.75,278.869 C180.924,278.743 181.158,278.68 181.452,278.68 C181.77,278.68 182.0235,278.758 182.2125,278.914 C182.4015,279.07 182.505,279.277 182.523,279.535 L182.523,279.535 L183.342,279.535 C183.318,279.055 183.138,278.677 182.802,278.401 C182.466,278.125 182.025,277.987 181.479,277.987 C181.125,277.987 180.81,278.0485 180.534,278.1715 C180.258,278.2945 180.045,278.461 179.895,278.671 C179.745,278.881 179.67,279.112 179.67,279.364 C179.67,279.682 179.7525,279.9385 179.9175,280.1335 C180.0825,280.3285 180.2805,280.4755 180.5115,280.5745 C180.7425,280.6735 181.041,280.771 181.407,280.867 C181.809,280.969 182.106,281.0725 182.298,281.1775 C182.49,281.2825 182.586,281.443 182.586,281.659 C182.586,281.869 182.496,282.043 182.316,282.181 C182.136,282.319 181.89,282.388 181.578,282.388 C181.242,282.388 180.9705,282.31 180.7635,282.154 C180.5565,281.998 180.441,281.797 180.417,281.551 L180.417,281.551 L179.571,281.551 C179.589,281.851 179.685,282.1165 179.859,282.3475 C180.033,282.5785 180.27,282.7585 180.57,282.8875 C180.87,283.0165 181.209,283.081 181.587,283.081 Z M186.285,283.081 C186.639,283.081 186.9525,283.0195 187.2255,282.8965 C187.4985,282.7735 187.71,282.604 187.86,282.388 C188.01,282.172 188.085,281.929 188.085,281.659 C188.079,281.359 187.9965,281.116 187.8375,280.93 C187.6785,280.744 187.488,280.6045 187.266,280.5115 C187.044,280.4185 186.756,280.324 186.402,280.228 C186.12,280.15 185.8995,280.0795 185.7405,280.0165 C185.5815,279.9535 185.4495,279.8695 185.3445,279.7645 C185.2395,279.6595 185.187,279.526 185.187,279.364 C185.187,279.16 185.274,278.995 185.448,278.869 C185.622,278.743 185.856,278.68 186.15,278.68 C186.468,278.68 186.7215,278.758 186.9105,278.914 C187.0995,279.07 187.203,279.277 187.221,279.535 L187.221,279.535 L188.04,279.535 C188.016,279.055 187.836,278.677 187.5,278.401 C187.164,278.125 186.723,277.987 186.177,277.987 C185.823,277.987 185.508,278.0485 185.232,278.1715 C184.956,278.2945 184.743,278.461 184.593,278.671 C184.443,278.881 184.368,279.112 184.368,279.364 C184.368,279.682 184.4505,279.9385 184.6155,280.1335 C184.7805,280.3285 184.9785,280.4755 185.2095,280.5745 C185.4405,280.6735 185.739,280.771 186.105,280.867 C186.507,280.969 186.804,281.0725 186.996,281.1775 C187.188,281.2825 187.284,281.443 187.284,281.659 C187.284,281.869 187.194,282.043 187.014,282.181 C186.834,282.319 186.588,282.388 186.276,282.388 C185.94,282.388 185.6685,282.31 185.4615,282.154 C185.2545,281.998 185.139,281.797 185.115,281.551 L185.115,281.551 L184.269,281.551 C184.287,281.851 184.383,282.1165 184.557,282.3475 C184.731,282.5785 184.968,282.7585 185.268,282.8875 C185.568,283.0165 185.907,283.081 186.285,283.081 Z M191.37,283.081 C191.958,283.081 192.45,282.9325 192.846,282.6355 C193.242,282.3385 193.506,281.953 193.638,281.479 L193.638,281.479 L192.756,281.479 C192.66,281.755 192.4935,281.9755 192.2565,282.1405 C192.0195,282.3055 191.724,282.388 191.37,282.388 C190.938,282.388 190.5705,282.2515 190.2675,281.9785 C189.9645,281.7055 189.798,281.326 189.768,280.84 L189.768,280.84 L193.71,280.84 C193.728,280.666 193.737,280.501 193.737,280.345 C193.737,279.895 193.6395,279.4915 193.4445,279.1345 C193.2495,278.7775 192.972,278.497 192.612,278.293 C192.252,278.089 191.838,277.987 191.37,277.987 C190.89,277.987 190.4655,278.0905 190.0965,278.2975 C189.7275,278.5045 189.441,278.8 189.237,279.184 C189.033,279.568 188.931,280.015 188.931,280.525 C188.931,281.035 189.036,281.4835 189.246,281.8705 C189.456,282.2575 189.7455,282.556 190.1145,282.766 C190.4835,282.976 190.902,283.081 191.37,283.081 Z M192.891,280.174 L189.777,280.174 C189.819,279.706 189.9855,279.34 190.2765,279.076 C190.5675,278.812 190.92,278.68 191.334,278.68 C191.622,278.68 191.8845,278.7385 192.1215,278.8555 C192.3585,278.9725 192.546,279.1435 192.684,279.3685 C192.822,279.5935 192.891,279.862 192.891,280.174 L192.891,280.174 Z M196.563,283.081 C196.917,283.081 197.2305,283.0195 197.5035,282.8965 C197.7765,282.7735 197.988,282.604 198.138,282.388 C198.288,282.172 198.363,281.929 198.363,281.659 C198.357,281.359 198.2745,281.116 198.1155,280.93 C197.9565,280.744 197.766,280.6045 197.544,280.5115 C197.322,280.4185 197.034,280.324 196.68,280.228 C196.398,280.15 196.1775,280.0795 196.0185,280.0165 C195.8595,279.9535 195.7275,279.8695 195.6225,279.7645 C195.5175,279.6595 195.465,279.526 195.465,279.364 C195.465,279.16 195.552,278.995 195.726,278.869 C195.9,278.743 196.134,278.68 196.428,278.68 C196.746,278.68 196.9995,278.758 197.1885,278.914 C197.3775,279.07 197.481,279.277 197.499,279.535 L197.499,279.535 L198.318,279.535 C198.294,279.055 198.114,278.677 197.778,278.401 C197.442,278.125 197.001,277.987 196.455,277.987 C196.101,277.987 195.786,278.0485 195.51,278.1715 C195.234,278.2945 195.021,278.461 194.871,278.671 C194.721,278.881 194.646,279.112 194.646,279.364 C194.646,279.682 194.7285,279.9385 194.8935,280.1335 C195.0585,280.3285 195.2565,280.4755 195.4875,280.5745 C195.7185,280.6735 196.017,280.771 196.383,280.867 C196.785,280.969 197.082,281.0725 197.274,281.1775 C197.466,281.2825 197.562,281.443 197.562,281.659 C197.562,281.869 197.472,282.043 197.292,282.181 C197.112,282.319 196.866,282.388 196.554,282.388 C196.218,282.388 195.9465,282.31 195.7395,282.154 C195.5325,281.998 195.417,281.797 195.393,281.551 L195.393,281.551 L194.547,281.551 C194.565,281.851 194.661,282.1165 194.835,282.3475 C195.009,282.5785 195.246,282.7585 195.546,282.8875 C195.846,283.0165 196.185,283.081 196.563,283.081 Z M202.737,285.34 L202.737,282.091 C202.905,282.373 203.1495,282.6085 203.4705,282.7975 C203.7915,282.9865 204.162,283.081 204.582,283.081 C205.02,283.081 205.4175,282.973 205.7745,282.757 C206.1315,282.541 206.412,282.238 206.616,281.848 C206.82,281.458 206.922,281.014 206.922,280.516 C206.922,280.012 206.82,279.5695 206.616,279.1885 C206.412,278.8075 206.1315,278.512 205.7745,278.302 C205.4175,278.092 205.02,277.987 204.582,277.987 C204.156,277.987 203.7825,278.0815 203.4615,278.2705 C203.1405,278.4595 202.899,278.695 202.737,278.977 L202.737,278.977 L202.737,278.068 L201.918,278.068 L201.918,285.34 L202.737,285.34 Z M204.411,282.361 C204.111,282.361 203.8335,282.2875 203.5785,282.1405 C203.3235,281.9935 203.1195,281.7805 202.9665,281.5015 C202.8135,281.2225 202.737,280.897 202.737,280.525 C202.737,280.159 202.8135,279.8365 202.9665,279.5575 C203.1195,279.2785 203.3235,279.0655 203.5785,278.9185 C203.8335,278.7715 204.111,278.698 204.411,278.698 C204.717,278.698 204.9975,278.77 205.2525,278.914 C205.5075,279.058 205.71,279.268 205.86,279.544 C206.01,279.82 206.085,280.144 206.085,280.516 C206.085,280.894 206.01,281.2225 205.86,281.5015 C205.71,281.7805 205.5075,281.9935 205.2525,282.1405 C204.9975,282.2875 204.717,282.361 204.411,282.361 Z M210.135,283.081 C210.723,283.081 211.215,282.9325 211.611,282.6355 C212.007,282.3385 212.271,281.953 212.403,281.479 L212.403,281.479 L211.521,281.479 C211.425,281.755 211.2585,281.9755 211.0215,282.1405 C210.7845,282.3055 210.489,282.388 210.135,282.388 C209.703,282.388 209.3355,282.2515 209.0325,281.9785 C208.7295,281.7055 208.563,281.326 208.533,280.84 L208.533,280.84 L212.475,280.84 C212.493,280.666 212.502,280.501 212.502,280.345 C212.502,279.895 212.4045,279.4915 212.2095,279.1345 C212.0145,278.7775 211.737,278.497 211.377,278.293 C211.017,278.089 210.603,277.987 210.135,277.987 C209.655,277.987 209.2305,278.0905 208.8615,278.2975 C208.4925,278.5045 208.206,278.8 208.002,279.184 C207.798,279.568 207.696,280.015 207.696,280.525 C207.696,281.035 207.801,281.4835 208.011,281.8705 C208.221,282.2575 208.5105,282.556 208.8795,282.766 C209.2485,282.976 209.667,283.081 210.135,283.081 Z M211.656,280.174 L208.542,280.174 C208.584,279.706 208.7505,279.34 209.0415,279.076 C209.3325,278.812 209.685,278.68 210.099,278.68 C210.387,278.68 210.6495,278.7385 210.8865,278.8555 C211.1235,278.9725 211.311,279.1435 211.449,279.3685 C211.587,279.5935 211.656,279.862 211.656,280.174 L211.656,280.174 Z M214.401,283 L214.401,280.318 C214.401,279.322 214.86,278.824 215.778,278.824 L215.778,278.824 L215.994,278.824 L215.994,277.978 C215.61,277.978 215.2845,278.056 215.0175,278.212 C214.7505,278.368 214.545,278.587 214.401,278.869 L214.401,278.869 L214.401,278.068 L213.582,278.068 L213.582,283 L214.401,283 Z M221.151,283 L222.339,279.085 L223.527,283 L224.373,283 L225.912,278.068 L225.102,278.068 L223.986,282.217 L222.789,278.068 L221.952,278.068 L220.728,282.208 L219.594,278.068 L218.757,278.068 L220.305,283 L221.151,283 Z M228.855,283.081 C229.443,283.081 229.935,282.9325 230.331,282.6355 C230.727,282.3385 230.991,281.953 231.123,281.479 L231.123,281.479 L230.241,281.479 C230.145,281.755 229.9785,281.9755 229.7415,282.1405 C229.5045,282.3055 229.209,282.388 228.855,282.388 C228.423,282.388 228.0555,282.2515 227.7525,281.9785 C227.4495,281.7055 227.283,281.326 227.253,280.84 L227.253,280.84 L231.195,280.84 C231.213,280.666 231.222,280.501 231.222,280.345 C231.222,279.895 231.1245,279.4915 230.9295,279.1345 C230.7345,278.7775 230.457,278.497 230.097,278.293 C229.737,278.089 229.323,277.987 228.855,277.987 C228.375,277.987 227.9505,278.0905 227.5815,278.2975 C227.2125,278.5045 226.926,278.8 226.722,279.184 C226.518,279.568 226.416,280.015 226.416,280.525 C226.416,281.035 226.521,281.4835 226.731,281.8705 C226.941,282.2575 227.2305,282.556 227.5995,282.766 C227.9685,282.976 228.387,283.081 228.855,283.081 Z M230.376,280.174 L227.262,280.174 C227.304,279.706 227.4705,279.34 227.7615,279.076 C228.0525,278.812 228.405,278.68 228.819,278.68 C229.107,278.68 229.3695,278.7385 229.6065,278.8555 C229.8435,278.9725 230.031,279.1435 230.169,279.3685 C230.307,279.5935 230.376,279.862 230.376,280.174 L230.376,280.174 Z M234.435,283.081 C235.023,283.081 235.515,282.9325 235.911,282.6355 C236.307,282.3385 236.571,281.953 236.703,281.479 L236.703,281.479 L235.821,281.479 C235.725,281.755 235.5585,281.9755 235.3215,282.1405 C235.0845,282.3055 234.789,282.388 234.435,282.388 C234.003,282.388 233.6355,282.2515 233.3325,281.9785 C233.0295,281.7055 232.863,281.326 232.833,280.84 L232.833,280.84 L236.775,280.84 C236.793,280.666 236.802,280.501 236.802,280.345 C236.802,279.895 236.7045,279.4915 236.5095,279.1345 C236.3145,278.7775 236.037,278.497 235.677,278.293 C235.317,278.089 234.903,277.987 234.435,277.987 C233.955,277.987 233.5305,278.0905 233.1615,278.2975 C232.7925,278.5045 232.506,278.8 232.302,279.184 C232.098,279.568 231.996,280.015 231.996,280.525 C231.996,281.035 232.101,281.4835 232.311,281.8705 C232.521,282.2575 232.8105,282.556 233.1795,282.766 C233.5485,282.976 233.967,283.081 234.435,283.081 Z M235.956,280.174 L232.842,280.174 C232.884,279.706 233.0505,279.34 233.3415,279.076 C233.6325,278.812 233.985,278.68 234.399,278.68 C234.687,278.68 234.9495,278.7385 235.1865,278.8555 C235.4235,278.9725 235.611,279.1435 235.749,279.3685 C235.887,279.5935 235.956,279.862 235.956,280.174 L235.956,280.174 Z M238.701,283 L238.701,280.822 L240.636,283 L241.752,283 L239.421,280.525 L241.743,278.068 L240.6,278.068 L238.701,280.255 L238.701,276.34 L237.882,276.34 L237.882,283 L238.701,283 Z M250.405711,281.646484 L252.304148,279.748047 L250.405711,277.849609 L250.405711,279.422852 L245.25532,279.422852 L245.25532,280.073242 L250.405711,280.073242 L250.405711,281.646484 Z" id="Glassesperweek→" fill="#FFFFFF" fill-rule="nonzero"></path>
            </g>
        </g>
    </g>
</svg>