<?xml version="1.0" encoding="UTF-8"?>
<svg width="334px" height="220px" viewBox="0 0 334 220" version="1.1" xmlns="http://www.w3.org/2000/svg" xmlns:xlink="http://www.w3.org/1999/xlink">
    <title>Group</title>
    <g id="Page-1" stroke="none" stroke-width="1" fill="none" fill-rule="evenodd">
        <g id="Hoi" transform="translate(-188.000000, -207.000000)">
            <g id="Group" transform="translate(188.693000, 208.000000)">
                <line x1="37.307" y1="0" x2="36.807" y2="182" id="Line" stroke="#FFFFFF" stroke-width="2" stroke-linecap="square"></line>
                <line x1="184.807" y1="35" x2="184.807" y2="329" id="Line-Copy" stroke="#FFFFFF" stroke-width="2" stroke-linecap="square" transform="translate(184.807000, 182.000000) rotate(-90.000000) translate(-184.807000, -182.000000) "></line>
                <path d="M24.341,9 L24.341,2.493 L22.649,2.493 L22.649,3.24 L23.513,3.24 L23.513,9 L24.341,9 Z M28.013,9 C28.847,9 29.432,8.709 29.768,8.127 C30.104,7.545 30.272,6.729 30.272,5.679 C30.272,4.647 30.104,3.8415 29.768,3.2625 C29.432,2.6835 28.847,2.394 28.013,2.394 C27.173,2.394 26.585,2.6835 26.249,3.2625 C25.913,3.8415 25.745,4.647 25.745,5.679 C25.745,6.729 25.913,7.545 26.249,8.127 C26.585,8.709 27.173,9 28.013,9 Z M28.013,8.253 C27.605,8.253 27.2945,8.142 27.0815,7.92 C26.8685,7.698 26.7275,7.404 26.6585,7.038 C26.5895,6.672 26.555,6.219 26.555,5.679 C26.555,5.157 26.5895,4.7145 26.6585,4.3515 C26.7275,3.9885 26.8685,3.696 27.0815,3.474 C27.2945,3.252 27.605,3.141 28.013,3.141 C28.415,3.141 28.7225,3.252 28.9355,3.474 C29.1485,3.696 29.2895,3.9885 29.3585,4.3515 C29.4275,4.7145 29.462,5.157 29.462,5.679 C29.462,6.219 29.4275,6.672 29.3585,7.038 C29.2895,7.404 29.1485,7.698 28.9355,7.92 C28.7225,8.142 28.415,8.253 28.013,8.253 Z" id="10" fill="#FFFFFF" fill-rule="nonzero"></path>
                <path d="M27.178,27.009 C27.736,27.009 28.1755,26.88 28.4965,26.622 C28.8175,26.364 29.0455,25.989 29.1805,25.497 C29.3155,25.005 29.383,24.381 29.383,23.625 C29.383,22.545 29.2135,21.732 28.8745,21.186 C28.5355,20.64 27.946,20.367 27.106,20.367 C26.422,20.367 25.894,20.5635 25.522,20.9565 C25.15,21.3495 24.964,21.867 24.964,22.509 C24.964,22.959 25.054,23.343 25.234,23.661 C25.414,23.979 25.6615,24.2205 25.9765,24.3855 C26.2915,24.5505 26.65,24.633 27.052,24.633 C27.412,24.633 27.739,24.5565 28.033,24.4035 C28.327,24.2505 28.537,24.039 28.663,23.769 C28.675,24.693 28.5625,25.35 28.3255,25.74 C28.0885,26.13 27.721,26.325 27.223,26.325 C26.851,26.325 26.5555,26.232 26.3365,26.046 C26.1175,25.86 25.978,25.596 25.918,25.254 L25.918,25.254 L25.162,25.254 C25.21,25.764 25.405,26.184 25.747,26.514 C26.089,26.844 26.566,27.009 27.178,27.009 Z M27.187,23.94 C26.719,23.94 26.362,23.808 26.116,23.544 C25.87,23.28 25.747,22.929 25.747,22.491 C25.747,22.059 25.8715,21.711 26.1205,21.447 C26.3695,21.183 26.704,21.051 27.124,21.051 C27.58,21.051 27.934,21.189 28.186,21.465 C28.438,21.741 28.564,22.104 28.564,22.554 C28.564,22.98 28.435,23.3175 28.177,23.5665 C27.919,23.8155 27.589,23.94 27.187,23.94 Z" id="9" fill="#FFFFFF" fill-rule="nonzero"></path>
                <path d="M27.142,45.18 C27.598,45.18 28.0015,45.1005 28.3525,44.9415 C28.7035,44.7825 28.975,44.5575 29.167,44.2665 C29.359,43.9755 29.455,43.635 29.455,43.245 C29.455,42.843 29.3455,42.4995 29.1265,42.2145 C28.9075,41.9295 28.612,41.73 28.24,41.616 C28.564,41.49 28.819,41.2965 29.005,41.0355 C29.191,40.7745 29.284,40.47 29.284,40.122 C29.284,39.798 29.2015,39.5055 29.0365,39.2445 C28.8715,38.9835 28.6285,38.7765 28.3075,38.6235 C27.9865,38.4705 27.598,38.394 27.142,38.394 C26.686,38.394 26.2975,38.4705 25.9765,38.6235 C25.6555,38.7765 25.414,38.9835 25.252,39.2445 C25.09,39.5055 25.009,39.798 25.009,40.122 C25.009,40.482 25.099,40.788 25.279,41.04 C25.459,41.292 25.717,41.484 26.053,41.616 C25.681,41.724 25.387,41.922 25.171,42.21 C24.955,42.498 24.847,42.843 24.847,43.245 C24.847,43.635 24.943,43.9755 25.135,44.2665 C25.327,44.5575 25.5955,44.7825 25.9405,44.9415 C26.2855,45.1005 26.686,45.18 27.142,45.18 Z M27.142,41.346 C26.746,41.346 26.4235,41.244 26.1745,41.04 C25.9255,40.836 25.801,40.566 25.801,40.23 C25.801,39.858 25.921,39.573 26.161,39.375 C26.401,39.177 26.728,39.078 27.142,39.078 C27.562,39.078 27.892,39.177 28.132,39.375 C28.372,39.573 28.492,39.855 28.492,40.221 C28.492,40.557 28.3675,40.8285 28.1185,41.0355 C27.8695,41.2425 27.544,41.346 27.142,41.346 Z M27.142,44.496 C26.68,44.496 26.3125,44.379 26.0395,44.145 C25.7665,43.911 25.63,43.602 25.63,43.218 C25.63,42.804 25.771,42.4935 26.053,42.2865 C26.335,42.0795 26.698,41.976 27.142,41.976 C27.592,41.976 27.955,42.0825 28.231,42.2955 C28.507,42.5085 28.645,42.816 28.645,43.218 C28.645,43.602 28.51,43.911 28.24,44.145 C27.97,44.379 27.604,44.496 27.142,44.496 Z" id="8" fill="#FFFFFF" fill-rule="nonzero"></path>
                <polygon id="7" fill="#FFFFFF" fill-rule="nonzero" points="26.368 63 28.87 57.132 28.87 56.511 24.604 56.511 24.604 57.213 28.078 57.213 25.54 63"></polygon>
                <path d="M27.349,81.018 C27.805,81.018 28.1935,80.922 28.5145,80.73 C28.8355,80.538 29.0755,80.28 29.2345,79.956 C29.3935,79.632 29.473,79.266 29.473,78.858 C29.473,78.18 29.2885,77.649 28.9195,77.265 C28.5505,76.881 28.057,76.689 27.439,76.689 C27.043,76.689 26.6845,76.7775 26.3635,76.9545 C26.0425,77.1315 25.813,77.376 25.675,77.688 C25.669,76.746 25.798,76.0695 26.062,75.6585 C26.326,75.2475 26.725,75.042 27.259,75.042 C27.949,75.042 28.36,75.375 28.492,76.041 L28.492,76.041 L29.248,76.041 C29.188,75.555 28.99,75.153 28.654,74.835 C28.318,74.517 27.856,74.358 27.268,74.358 C25.732,74.358 24.964,75.459 24.964,77.661 C24.964,78.375 25.033,78.975 25.171,79.461 C25.309,79.947 25.552,80.328 25.9,80.604 C26.248,80.88 26.731,81.018 27.349,81.018 Z M27.304,80.334 C26.812,80.334 26.434,80.1915 26.17,79.9065 C25.906,79.6215 25.774,79.251 25.774,78.795 C25.774,78.489 25.8445,78.2295 25.9855,78.0165 C26.1265,77.8035 26.311,77.6445 26.539,77.5395 C26.767,77.4345 27.01,77.382 27.268,77.382 C27.73,77.382 28.081,77.5155 28.321,77.7825 C28.561,78.0495 28.681,78.417 28.681,78.885 C28.681,79.329 28.5565,79.6815 28.3075,79.9425 C28.0585,80.2035 27.724,80.334 27.304,80.334 Z" id="6" fill="#FFFFFF" fill-rule="nonzero"></path>
                <path d="M27.205,98.018 C27.697,98.018 28.1095,97.919 28.4425,97.721 C28.7755,97.523 29.023,97.253 29.185,96.911 C29.347,96.569 29.428,96.182 29.428,95.75 C29.428,95.384 29.3605,95.0375 29.2255,94.7105 C29.0905,94.3835 28.867,94.1165 28.555,93.9095 C28.243,93.7025 27.838,93.599 27.34,93.599 C27.028,93.599 26.737,93.6605 26.467,93.7835 C26.197,93.9065 25.993,94.064 25.855,94.256 L25.855,94.256 L25.855,92.204 L29.014,92.204 L29.014,91.484 L25.099,91.484 L25.099,95.156 L25.873,95.156 C25.981,94.892 26.1535,94.6835 26.3905,94.5305 C26.6275,94.3775 26.905,94.301 27.223,94.301 C27.691,94.301 28.045,94.4285 28.285,94.6835 C28.525,94.9385 28.645,95.3 28.645,95.768 C28.645,96.236 28.525,96.6125 28.285,96.8975 C28.045,97.1825 27.688,97.325 27.214,97.325 C26.83,97.325 26.512,97.229 26.26,97.037 C26.008,96.845 25.843,96.578 25.765,96.236 L25.765,96.236 L24.964,96.236 C25.048,96.776 25.285,97.208 25.675,97.532 C26.065,97.856 26.575,98.018 27.205,98.018 Z" id="5" fill="#FFFFFF" fill-rule="nonzero"></path>
                <path d="M28.807,116 L28.807,114.551 L29.707,114.551 L29.707,113.84 L28.807,113.84 L28.807,109.556 L27.826,109.556 L24.667,113.93 L24.667,114.551 L27.997,114.551 L27.997,116 L28.807,116 Z M28.033,113.84 L25.612,113.84 L28.033,110.411 L28.033,113.84 Z" id="4" fill="#FFFFFF" fill-rule="nonzero"></path>
                <path d="M26.998,134.045 C27.436,134.045 27.811,133.967 28.123,133.811 C28.435,133.655 28.669,133.4405 28.825,133.1675 C28.981,132.8945 29.059,132.587 29.059,132.245 C29.059,131.789 28.945,131.42 28.717,131.138 C28.489,130.856 28.18,130.667 27.79,130.571 L27.79,130.571 L27.79,130.526 C28.132,130.448 28.4095,130.274 28.6225,130.004 C28.8355,129.734 28.942,129.413 28.942,129.041 C28.942,128.723 28.8655,128.438 28.7125,128.186 C28.5595,127.934 28.3345,127.7345 28.0375,127.5875 C27.7405,127.4405 27.388,127.367 26.98,127.367 C26.368,127.367 25.87,127.523 25.486,127.835 C25.102,128.147 24.889,128.579 24.847,129.131 L24.847,129.131 L25.648,129.131 C25.69,128.807 25.825,128.549 26.053,128.357 C26.281,128.165 26.581,128.069 26.953,128.069 C27.337,128.069 27.6325,128.165 27.8395,128.357 C28.0465,128.549 28.15,128.804 28.15,129.122 C28.15,129.494 28.009,129.7685 27.727,129.9455 C27.445,130.1225 27.028,130.214 26.476,130.22 L26.476,130.22 L26.26,130.22 L26.26,130.904 L26.467,130.904 C27.073,130.904 27.526,131.003 27.826,131.201 C28.126,131.399 28.276,131.723 28.276,132.173 C28.276,132.521 28.1665,132.8045 27.9475,133.0235 C27.7285,133.2425 27.409,133.352 26.989,133.352 C26.569,133.352 26.233,133.238 25.981,133.01 C25.729,132.782 25.582,132.488 25.54,132.128 L25.54,132.128 L24.748,132.128 C24.796,132.74 25.024,133.2125 25.432,133.5455 C25.84,133.8785 26.362,134.045 26.998,134.045 Z" id="3" fill="#FFFFFF" fill-rule="nonzero"></path>
                <path d="M29.095,151.928 L29.095,151.244 L25.999,151.244 C26.587,150.77 27.07,150.3545 27.448,149.9975 C27.826,149.6405 28.1635,149.2265 28.4605,148.7555 C28.7575,148.2845 28.906,147.8 28.906,147.302 C28.906,146.702 28.7245,146.231 28.3615,145.889 C27.9985,145.547 27.508,145.376 26.89,145.376 C26.284,145.376 25.789,145.559 25.405,145.925 C25.021,146.291 24.817,146.81 24.793,147.482 L24.793,147.482 L25.585,147.482 C25.603,147.056 25.7245,146.7155 25.9495,146.4605 C26.1745,146.2055 26.491,146.078 26.899,146.078 C27.319,146.078 27.6235,146.1905 27.8125,146.4155 C28.0015,146.6405 28.096,146.948 28.096,147.338 C28.096,147.752 27.9475,148.1735 27.6505,148.6025 C27.3535,149.0315 26.989,149.4425 26.557,149.8355 C26.125,150.2285 25.528,150.731 24.766,151.343 L24.766,151.343 L24.766,151.928 L29.095,151.928 Z" id="2" fill="#FFFFFF" fill-rule="nonzero"></path>
                <polygon id="1" fill="#FFFFFF" fill-rule="nonzero" points="27.341 170 27.341 163.493 25.649 163.493 25.649 164.24 26.513 164.24 26.513 170"></polygon>
                <path d="M-37.985,94 L-37.985,93.334 L-40.181,93.334 L-40.181,87.727 L-41,87.727 L-41,94 L-37.985,94 Z M-34.979,94.081 C-34.391,94.081 -33.899,93.9325 -33.503,93.6355 C-33.107,93.3385 -32.843,92.953 -32.711,92.479 L-32.711,92.479 L-33.593,92.479 C-33.689,92.755 -33.8555,92.9755 -34.0925,93.1405 C-34.3295,93.3055 -34.625,93.388 -34.979,93.388 C-35.411,93.388 -35.7785,93.2515 -36.0815,92.9785 C-36.3845,92.7055 -36.551,92.326 -36.581,91.84 L-36.581,91.84 L-32.639,91.84 C-32.621,91.666 -32.612,91.501 -32.612,91.345 C-32.612,90.895 -32.7095,90.4915 -32.9045,90.1345 C-33.0995,89.7775 -33.377,89.497 -33.737,89.293 C-34.097,89.089 -34.511,88.987 -34.979,88.987 C-35.459,88.987 -35.8835,89.0905 -36.2525,89.2975 C-36.6215,89.5045 -36.908,89.8 -37.112,90.184 C-37.316,90.568 -37.418,91.015 -37.418,91.525 C-37.418,92.035 -37.313,92.4835 -37.103,92.8705 C-36.893,93.2575 -36.6035,93.556 -36.2345,93.766 C-35.8655,93.976 -35.447,94.081 -34.979,94.081 Z M-33.458,91.174 L-36.572,91.174 C-36.53,90.706 -36.3635,90.34 -36.0725,90.076 C-35.7815,89.812 -35.429,89.68 -35.015,89.68 C-34.727,89.68 -34.4645,89.7385 -34.2275,89.8555 C-33.9905,89.9725 -33.803,90.1435 -33.665,90.3685 C-33.527,90.5935 -33.458,90.862 -33.458,91.174 L-33.458,91.174 Z M-29.228,94 L-27.293,89.068 L-28.166,89.068 L-29.696,93.244 L-31.235,89.068 L-32.117,89.068 L-30.182,94 L-29.228,94 Z M-24.35,94.081 C-23.762,94.081 -23.27,93.9325 -22.874,93.6355 C-22.478,93.3385 -22.214,92.953 -22.082,92.479 L-22.082,92.479 L-22.964,92.479 C-23.06,92.755 -23.2265,92.9755 -23.4635,93.1405 C-23.7005,93.3055 -23.996,93.388 -24.35,93.388 C-24.782,93.388 -25.1495,93.2515 -25.4525,92.9785 C-25.7555,92.7055 -25.922,92.326 -25.952,91.84 L-25.952,91.84 L-22.01,91.84 C-21.992,91.666 -21.983,91.501 -21.983,91.345 C-21.983,90.895 -22.0805,90.4915 -22.2755,90.1345 C-22.4705,89.7775 -22.748,89.497 -23.108,89.293 C-23.468,89.089 -23.882,88.987 -24.35,88.987 C-24.83,88.987 -25.2545,89.0905 -25.6235,89.2975 C-25.9925,89.5045 -26.279,89.8 -26.483,90.184 C-26.687,90.568 -26.789,91.015 -26.789,91.525 C-26.789,92.035 -26.684,92.4835 -26.474,92.8705 C-26.264,93.2575 -25.9745,93.556 -25.6055,93.766 C-25.2365,93.976 -24.818,94.081 -24.35,94.081 Z M-22.829,91.174 L-25.943,91.174 C-25.901,90.706 -25.7345,90.34 -25.4435,90.076 C-25.1525,89.812 -24.8,89.68 -24.386,89.68 C-24.098,89.68 -23.8355,89.7385 -23.5985,89.8555 C-23.3615,89.9725 -23.174,90.1435 -23.036,90.3685 C-22.898,90.5935 -22.829,90.862 -22.829,91.174 L-22.829,91.174 Z M-20.084,94 L-20.084,87.34 L-20.903,87.34 L-20.903,94 L-20.084,94 Z M-14.135,94.081 C-13.667,94.081 -13.241,93.976 -12.857,93.766 C-12.473,93.556 -12.1685,93.2575 -11.9435,92.8705 C-11.7185,92.4835 -11.606,92.035 -11.606,91.525 C-11.606,91.015 -11.7155,90.568 -11.9345,90.184 C-12.1535,89.8 -12.452,89.5045 -12.83,89.2975 C-13.208,89.0905 -13.631,88.987 -14.099,88.987 C-14.567,88.987 -14.99,89.0905 -15.368,89.2975 C-15.746,89.5045 -16.0445,89.8015 -16.2635,90.1885 C-16.4825,90.5755 -16.592,91.021 -16.592,91.525 C-16.592,92.035 -16.4855,92.4835 -16.2725,92.8705 C-16.0595,93.2575 -15.7655,93.556 -15.3905,93.766 C-15.0155,93.976 -14.597,94.081 -14.135,94.081 Z M-14.135,93.361 C-14.429,93.361 -14.699,93.2935 -14.945,93.1585 C-15.191,93.0235 -15.3875,92.818 -15.5345,92.542 C-15.6815,92.266 -15.755,91.927 -15.755,91.525 C-15.755,91.129 -15.68,90.793 -15.53,90.517 C-15.38,90.241 -15.1805,90.0355 -14.9315,89.9005 C-14.6825,89.7655 -14.408,89.698 -14.108,89.698 C-13.814,89.698 -13.541,89.7655 -13.289,89.9005 C-13.037,90.0355 -12.833,90.241 -12.677,90.517 C-12.521,90.793 -12.443,91.129 -12.443,91.525 C-12.443,91.921 -12.5225,92.257 -12.6815,92.533 C-12.8405,92.809 -13.049,93.016 -13.307,93.154 C-13.565,93.292 -13.841,93.361 -14.135,93.361 Z M-9.554,94 L-9.554,89.743 L-8.519,89.743 L-8.519,89.068 L-9.554,89.068 L-9.554,88.717 C-9.554,88.393 -9.4805,88.1605 -9.3335,88.0195 C-9.1865,87.8785 -8.933,87.808 -8.573,87.808 L-8.573,87.808 L-8.573,87.124 C-9.203,87.124 -9.6605,87.2515 -9.9455,87.5065 C-10.2305,87.7615 -10.373,88.165 -10.373,88.717 L-10.373,88.717 L-10.373,89.068 L-11.012,89.068 L-11.012,89.743 L-10.373,89.743 L-10.373,94 L-9.554,94 Z M-4.343,94 L-4.343,91.273 C-4.343,90.757 -4.2155,90.364 -3.9605,90.094 C-3.7055,89.824 -3.362,89.689 -2.93,89.689 C-2.504,89.689 -2.168,89.8195 -1.922,90.0805 C-1.676,90.3415 -1.553,90.718 -1.553,91.21 L-1.553,91.21 L-1.553,94 L-0.743,94 L-0.743,91.093 C-0.743,90.637 -0.8285,90.25 -0.9995,89.932 C-1.1705,89.614 -1.406,89.3755 -1.706,89.2165 C-2.006,89.0575 -2.342,88.978 -2.714,88.978 C-3.068,88.978 -3.3875,89.047 -3.6725,89.185 C-3.9575,89.323 -4.181,89.518 -4.343,89.77 L-4.343,89.77 L-4.343,87.34 L-5.162,87.34 L-5.162,94 L-4.343,94 Z M2.623,94.081 C3.049,94.081 3.4225,93.9865 3.7435,93.7975 C4.0645,93.6085 4.306,93.37 4.468,93.082 L4.468,93.082 L4.468,94 L5.296,94 L5.296,89.068 L4.468,89.068 L4.468,89.968 C4.312,89.686 4.075,89.452 3.757,89.266 C3.439,89.08 3.064,88.987 2.632,88.987 C2.194,88.987 1.7965,89.092 1.4395,89.302 C1.0825,89.512 0.802,89.8075 0.598,90.1885 C0.394,90.5695 0.292,91.012 0.292,91.516 C0.292,92.014 0.394,92.458 0.598,92.848 C0.802,93.238 1.081,93.541 1.435,93.757 C1.789,93.973 2.185,94.081 2.623,94.081 Z M2.794,93.361 C2.488,93.361 2.209,93.2875 1.957,93.1405 C1.705,92.9935 1.504,92.7805 1.354,92.5015 C1.204,92.2225 1.129,91.894 1.129,91.516 C1.129,91.144 1.204,90.82 1.354,90.544 C1.504,90.268 1.705,90.058 1.957,89.914 C2.209,89.77 2.488,89.698 2.794,89.698 C3.1,89.698 3.3805,89.7715 3.6355,89.9185 C3.8905,90.0655 4.093,90.277 4.243,90.553 C4.393,90.829 4.468,91.153 4.468,91.525 C4.468,91.897 4.393,92.2225 4.243,92.5015 C4.093,92.7805 3.8905,92.9935 3.6355,93.1405 C3.3805,93.2875 3.1,93.361 2.794,93.361 Z M7.501,96.34 L7.501,93.091 C7.669,93.373 7.9135,93.6085 8.2345,93.7975 C8.5555,93.9865 8.926,94.081 9.346,94.081 C9.784,94.081 10.1815,93.973 10.5385,93.757 C10.8955,93.541 11.176,93.238 11.38,92.848 C11.584,92.458 11.686,92.014 11.686,91.516 C11.686,91.012 11.584,90.5695 11.38,90.1885 C11.176,89.8075 10.8955,89.512 10.5385,89.302 C10.1815,89.092 9.784,88.987 9.346,88.987 C8.92,88.987 8.5465,89.0815 8.2255,89.2705 C7.9045,89.4595 7.663,89.695 7.501,89.977 L7.501,89.977 L7.501,89.068 L6.682,89.068 L6.682,96.34 L7.501,96.34 Z M9.175,93.361 C8.875,93.361 8.5975,93.2875 8.3425,93.1405 C8.0875,92.9935 7.8835,92.7805 7.7305,92.5015 C7.5775,92.2225 7.501,91.897 7.501,91.525 C7.501,91.159 7.5775,90.8365 7.7305,90.5575 C7.8835,90.2785 8.0875,90.0655 8.3425,89.9185 C8.5975,89.7715 8.875,89.698 9.175,89.698 C9.481,89.698 9.7615,89.77 10.0165,89.914 C10.2715,90.058 10.474,90.268 10.624,90.544 C10.774,90.82 10.849,91.144 10.849,91.516 C10.849,91.894 10.774,92.2225 10.624,92.5015 C10.474,92.7805 10.2715,92.9935 10.0165,93.1405 C9.7615,93.2875 9.481,93.361 9.175,93.361 Z M13.585,96.34 L13.585,93.091 C13.753,93.373 13.9975,93.6085 14.3185,93.7975 C14.6395,93.9865 15.01,94.081 15.43,94.081 C15.868,94.081 16.2655,93.973 16.6225,93.757 C16.9795,93.541 17.26,93.238 17.464,92.848 C17.668,92.458 17.77,92.014 17.77,91.516 C17.77,91.012 17.668,90.5695 17.464,90.1885 C17.26,89.8075 16.9795,89.512 16.6225,89.302 C16.2655,89.092 15.868,88.987 15.43,88.987 C15.004,88.987 14.6305,89.0815 14.3095,89.2705 C13.9885,89.4595 13.747,89.695 13.585,89.977 L13.585,89.977 L13.585,89.068 L12.766,89.068 L12.766,96.34 L13.585,96.34 Z M15.259,93.361 C14.959,93.361 14.6815,93.2875 14.4265,93.1405 C14.1715,92.9935 13.9675,92.7805 13.8145,92.5015 C13.6615,92.2225 13.585,91.897 13.585,91.525 C13.585,91.159 13.6615,90.8365 13.8145,90.5575 C13.9675,90.2785 14.1715,90.0655 14.4265,89.9185 C14.6815,89.7715 14.959,89.698 15.259,89.698 C15.565,89.698 15.8455,89.77 16.1005,89.914 C16.3555,90.058 16.558,90.268 16.708,90.544 C16.858,90.82 16.933,91.144 16.933,91.516 C16.933,91.894 16.858,92.2225 16.708,92.5015 C16.558,92.7805 16.3555,92.9935 16.1005,93.1405 C15.8455,93.2875 15.565,93.361 15.259,93.361 Z M19.273,88.267 C19.423,88.267 19.5505,88.213 19.6555,88.105 C19.7605,87.997 19.813,87.865 19.813,87.709 C19.813,87.553 19.7605,87.421 19.6555,87.313 C19.5505,87.205 19.423,87.151 19.273,87.151 C19.117,87.151 18.985,87.205 18.877,87.313 C18.769,87.421 18.715,87.553 18.715,87.709 C18.715,87.865 18.769,87.997 18.877,88.105 C18.985,88.213 19.117,88.267 19.273,88.267 Z M19.669,94 L19.669,89.068 L18.85,89.068 L18.85,94 L19.669,94 Z M21.883,94 L21.883,91.273 C21.883,90.757 22.0105,90.364 22.2655,90.094 C22.5205,89.824 22.864,89.689 23.296,89.689 C23.722,89.689 24.058,89.8195 24.304,90.0805 C24.55,90.3415 24.673,90.718 24.673,91.21 L24.673,91.21 L24.673,94 L25.483,94 L25.483,91.093 C25.483,90.409 25.297,89.8855 24.925,89.5225 C24.553,89.1595 24.067,88.978 23.467,88.978 C23.131,88.978 22.8235,89.047 22.5445,89.185 C22.2655,89.323 22.045,89.518 21.883,89.77 L21.883,89.77 L21.883,89.068 L21.064,89.068 L21.064,94 L21.883,94 Z M28.957,94.081 C29.545,94.081 30.037,93.9325 30.433,93.6355 C30.829,93.3385 31.093,92.953 31.225,92.479 L31.225,92.479 L30.343,92.479 C30.247,92.755 30.0805,92.9755 29.8435,93.1405 C29.6065,93.3055 29.311,93.388 28.957,93.388 C28.525,93.388 28.1575,93.2515 27.8545,92.9785 C27.5515,92.7055 27.385,92.326 27.355,91.84 L27.355,91.84 L31.297,91.84 C31.315,91.666 31.324,91.501 31.324,91.345 C31.324,90.895 31.2265,90.4915 31.0315,90.1345 C30.8365,89.7775 30.559,89.497 30.199,89.293 C29.839,89.089 29.425,88.987 28.957,88.987 C28.477,88.987 28.0525,89.0905 27.6835,89.2975 C27.3145,89.5045 27.028,89.8 26.824,90.184 C26.62,90.568 26.518,91.015 26.518,91.525 C26.518,92.035 26.623,92.4835 26.833,92.8705 C27.043,93.2575 27.3325,93.556 27.7015,93.766 C28.0705,93.976 28.489,94.081 28.957,94.081 Z M30.478,91.174 L27.364,91.174 C27.406,90.706 27.5725,90.34 27.8635,90.076 C28.1545,89.812 28.507,89.68 28.921,89.68 C29.209,89.68 29.4715,89.7385 29.7085,89.8555 C29.9455,89.9725 30.133,90.1435 30.271,90.3685 C30.409,90.5935 30.478,90.862 30.478,91.174 L30.478,91.174 Z M34.15,94.081 C34.504,94.081 34.8175,94.0195 35.0905,93.8965 C35.3635,93.7735 35.575,93.604 35.725,93.388 C35.875,93.172 35.95,92.929 35.95,92.659 C35.944,92.359 35.8615,92.116 35.7025,91.93 C35.5435,91.744 35.353,91.6045 35.131,91.5115 C34.909,91.4185 34.621,91.324 34.267,91.228 C33.985,91.15 33.7645,91.0795 33.6055,91.0165 C33.4465,90.9535 33.3145,90.8695 33.2095,90.7645 C33.1045,90.6595 33.052,90.526 33.052,90.364 C33.052,90.16 33.139,89.995 33.313,89.869 C33.487,89.743 33.721,89.68 34.015,89.68 C34.333,89.68 34.5865,89.758 34.7755,89.914 C34.9645,90.07 35.068,90.277 35.086,90.535 L35.086,90.535 L35.905,90.535 C35.881,90.055 35.701,89.677 35.365,89.401 C35.029,89.125 34.588,88.987 34.042,88.987 C33.688,88.987 33.373,89.0485 33.097,89.1715 C32.821,89.2945 32.608,89.461 32.458,89.671 C32.308,89.881 32.233,90.112 32.233,90.364 C32.233,90.682 32.3155,90.9385 32.4805,91.1335 C32.6455,91.3285 32.8435,91.4755 33.0745,91.5745 C33.3055,91.6735 33.604,91.771 33.97,91.867 C34.372,91.969 34.669,92.0725 34.861,92.1775 C35.053,92.2825 35.149,92.443 35.149,92.659 C35.149,92.869 35.059,93.043 34.879,93.181 C34.699,93.319 34.453,93.388 34.141,93.388 C33.805,93.388 33.5335,93.31 33.3265,93.154 C33.1195,92.998 33.004,92.797 32.98,92.551 L32.98,92.551 L32.134,92.551 C32.152,92.851 32.248,93.1165 32.422,93.3475 C32.596,93.5785 32.833,93.7585 33.133,93.8875 C33.433,94.0165 33.772,94.081 34.15,94.081 Z M38.848,94.081 C39.202,94.081 39.5155,94.0195 39.7885,93.8965 C40.0615,93.7735 40.273,93.604 40.423,93.388 C40.573,93.172 40.648,92.929 40.648,92.659 C40.642,92.359 40.5595,92.116 40.4005,91.93 C40.2415,91.744 40.051,91.6045 39.829,91.5115 C39.607,91.4185 39.319,91.324 38.965,91.228 C38.683,91.15 38.4625,91.0795 38.3035,91.0165 C38.1445,90.9535 38.0125,90.8695 37.9075,90.7645 C37.8025,90.6595 37.75,90.526 37.75,90.364 C37.75,90.16 37.837,89.995 38.011,89.869 C38.185,89.743 38.419,89.68 38.713,89.68 C39.031,89.68 39.2845,89.758 39.4735,89.914 C39.6625,90.07 39.766,90.277 39.784,90.535 L39.784,90.535 L40.603,90.535 C40.579,90.055 40.399,89.677 40.063,89.401 C39.727,89.125 39.286,88.987 38.74,88.987 C38.386,88.987 38.071,89.0485 37.795,89.1715 C37.519,89.2945 37.306,89.461 37.156,89.671 C37.006,89.881 36.931,90.112 36.931,90.364 C36.931,90.682 37.0135,90.9385 37.1785,91.1335 C37.3435,91.3285 37.5415,91.4755 37.7725,91.5745 C38.0035,91.6735 38.302,91.771 38.668,91.867 C39.07,91.969 39.367,92.0725 39.559,92.1775 C39.751,92.2825 39.847,92.443 39.847,92.659 C39.847,92.869 39.757,93.043 39.577,93.181 C39.397,93.319 39.151,93.388 38.839,93.388 C38.503,93.388 38.2315,93.31 38.0245,93.154 C37.8175,92.998 37.702,92.797 37.678,92.551 L37.678,92.551 L36.832,92.551 C36.85,92.851 36.946,93.1165 37.12,93.3475 C37.294,93.5785 37.531,93.7585 37.831,93.8875 C38.131,94.0165 38.47,94.081 38.848,94.081 Z M49.6887109,92.6464844 L51.5871484,90.7480469 L49.6887109,88.8496094 L49.6887109,90.4228516 L44.5383203,90.4228516 L44.5383203,91.0732422 L49.6887109,91.0732422 L49.6887109,92.6464844 Z" id="Levelofhappiness→" fill="#FFFFFF" fill-rule="nonzero" transform="translate(5.293574, 91.732000) rotate(-90.000000) translate(-5.293574, -91.732000) "></path>
                <path d="M127.269,216.009 L128.178,216 L129.69,210.951 L131.148,216 L132.066,216 L133.884,209.727 L133.002,209.727 L131.625,215.028 L130.185,209.727 L129.267,209.727 L127.755,215.046 L126.387,209.727 L125.514,209.727 L127.269,216.009 Z M136.935,216.081 C137.403,216.081 137.829,215.976 138.213,215.766 C138.597,215.556 138.9015,215.2575 139.1265,214.8705 C139.3515,214.4835 139.464,214.035 139.464,213.525 C139.464,213.015 139.3545,212.568 139.1355,212.184 C138.9165,211.8 138.618,211.5045 138.24,211.2975 C137.862,211.0905 137.439,210.987 136.971,210.987 C136.503,210.987 136.08,211.0905 135.702,211.2975 C135.324,211.5045 135.0255,211.8015 134.8065,212.1885 C134.5875,212.5755 134.478,213.021 134.478,213.525 C134.478,214.035 134.5845,214.4835 134.7975,214.8705 C135.0105,215.2575 135.3045,215.556 135.6795,215.766 C136.0545,215.976 136.473,216.081 136.935,216.081 Z M136.935,215.361 C136.641,215.361 136.371,215.2935 136.125,215.1585 C135.879,215.0235 135.6825,214.818 135.5355,214.542 C135.3885,214.266 135.315,213.927 135.315,213.525 C135.315,213.129 135.39,212.793 135.54,212.517 C135.69,212.241 135.8895,212.0355 136.1385,211.9005 C136.3875,211.7655 136.662,211.698 136.962,211.698 C137.256,211.698 137.529,211.7655 137.781,211.9005 C138.033,212.0355 138.237,212.241 138.393,212.517 C138.549,212.793 138.627,213.129 138.627,213.525 C138.627,213.921 138.5475,214.257 138.3885,214.533 C138.2295,214.809 138.021,215.016 137.763,215.154 C137.505,215.292 137.229,215.361 136.935,215.361 Z M141.363,216 L141.363,213.318 C141.363,212.322 141.822,211.824 142.74,211.824 L142.74,211.824 L142.956,211.824 L142.956,210.978 C142.572,210.978 142.2465,211.056 141.9795,211.212 C141.7125,211.368 141.507,211.587 141.363,211.869 L141.363,211.869 L141.363,211.068 L140.544,211.068 L140.544,216 L141.363,216 Z M144.72,216 L144.72,213.822 L146.655,216 L147.771,216 L145.44,213.525 L147.762,211.068 L146.619,211.068 L144.72,213.255 L144.72,209.34 L143.901,209.34 L143.901,216 L144.72,216 Z M148.959,210.267 C149.109,210.267 149.2365,210.213 149.3415,210.105 C149.4465,209.997 149.499,209.865 149.499,209.709 C149.499,209.553 149.4465,209.421 149.3415,209.313 C149.2365,209.205 149.109,209.151 148.959,209.151 C148.803,209.151 148.671,209.205 148.563,209.313 C148.455,209.421 148.401,209.553 148.401,209.709 C148.401,209.865 148.455,209.997 148.563,210.105 C148.671,210.213 148.803,210.267 148.959,210.267 Z M149.355,216 L149.355,211.068 L148.536,211.068 L148.536,216 L149.355,216 Z M151.569,216 L151.569,213.273 C151.569,212.757 151.6965,212.364 151.9515,212.094 C152.2065,211.824 152.55,211.689 152.982,211.689 C153.408,211.689 153.744,211.8195 153.99,212.0805 C154.236,212.3415 154.359,212.718 154.359,213.21 L154.359,213.21 L154.359,216 L155.169,216 L155.169,213.093 C155.169,212.409 154.983,211.8855 154.611,211.5225 C154.239,211.1595 153.753,210.978 153.153,210.978 C152.817,210.978 152.5095,211.047 152.2305,211.185 C151.9515,211.323 151.731,211.518 151.569,211.77 L151.569,211.77 L151.569,211.068 L150.75,211.068 L150.75,216 L151.569,216 Z M158.85,218.43 C159.324,218.43 159.7395,218.331 160.0965,218.133 C160.4535,217.935 160.728,217.6605 160.92,217.3095 C161.112,216.9585 161.208,216.558 161.208,216.108 L161.208,216.108 L161.208,211.068 L160.38,211.068 L160.38,211.968 C160.224,211.686 159.9855,211.452 159.6645,211.266 C159.3435,211.08 158.97,210.987 158.544,210.987 C158.106,210.987 157.7085,211.092 157.3515,211.302 C156.9945,211.512 156.714,211.8075 156.51,212.1885 C156.306,212.5695 156.204,213.012 156.204,213.516 C156.204,214.014 156.306,214.458 156.51,214.848 C156.714,215.238 156.9945,215.541 157.3515,215.757 C157.7085,215.973 158.106,216.081 158.544,216.081 C158.97,216.081 159.342,215.985 159.66,215.793 C159.978,215.601 160.218,215.361 160.38,215.073 L160.38,215.073 L160.38,216.108 C160.38,216.618 160.2375,217.014 159.9525,217.296 C159.6675,217.578 159.3,217.719 158.85,217.719 C158.454,217.719 158.115,217.6275 157.833,217.4445 C157.551,217.2615 157.365,217.02 157.275,216.72 L157.275,216.72 L156.465,216.72 C156.543,217.248 156.798,217.665 157.23,217.971 C157.662,218.277 158.202,218.43 158.85,218.43 Z M158.706,215.361 C158.4,215.361 158.121,215.2875 157.869,215.1405 C157.617,214.9935 157.416,214.7805 157.266,214.5015 C157.116,214.2225 157.041,213.894 157.041,213.516 C157.041,213.144 157.116,212.82 157.266,212.544 C157.416,212.268 157.617,212.058 157.869,211.914 C158.121,211.77 158.4,211.698 158.706,211.698 C159.012,211.698 159.2925,211.7715 159.5475,211.9185 C159.8025,212.0655 160.005,212.277 160.155,212.553 C160.305,212.829 160.38,213.153 160.38,213.525 C160.38,213.897 160.305,214.2225 160.155,214.5015 C160.005,214.7805 159.8025,214.9935 159.5475,215.1405 C159.2925,215.2875 159.012,215.361 158.706,215.361 Z M165.816,216 L165.816,213.273 C165.816,212.757 165.9435,212.364 166.1985,212.094 C166.4535,211.824 166.797,211.689 167.229,211.689 C167.655,211.689 167.991,211.8195 168.237,212.0805 C168.483,212.3415 168.606,212.718 168.606,213.21 L168.606,213.21 L168.606,216 L169.416,216 L169.416,213.093 C169.416,212.637 169.3305,212.25 169.1595,211.932 C168.9885,211.614 168.753,211.3755 168.453,211.2165 C168.153,211.0575 167.817,210.978 167.445,210.978 C167.091,210.978 166.7715,211.047 166.4865,211.185 C166.2015,211.323 165.978,211.518 165.816,211.77 L165.816,211.77 L165.816,209.34 L164.997,209.34 L164.997,216 L165.816,216 Z M172.908,216.081 C173.376,216.081 173.802,215.976 174.186,215.766 C174.57,215.556 174.8745,215.2575 175.0995,214.8705 C175.3245,214.4835 175.437,214.035 175.437,213.525 C175.437,213.015 175.3275,212.568 175.1085,212.184 C174.8895,211.8 174.591,211.5045 174.213,211.2975 C173.835,211.0905 173.412,210.987 172.944,210.987 C172.476,210.987 172.053,211.0905 171.675,211.2975 C171.297,211.5045 170.9985,211.8015 170.7795,212.1885 C170.5605,212.5755 170.451,213.021 170.451,213.525 C170.451,214.035 170.5575,214.4835 170.7705,214.8705 C170.9835,215.2575 171.2775,215.556 171.6525,215.766 C172.0275,215.976 172.446,216.081 172.908,216.081 Z M172.908,215.361 C172.614,215.361 172.344,215.2935 172.098,215.1585 C171.852,215.0235 171.6555,214.818 171.5085,214.542 C171.3615,214.266 171.288,213.927 171.288,213.525 C171.288,213.129 171.363,212.793 171.513,212.517 C171.663,212.241 171.8625,212.0355 172.1115,211.9005 C172.3605,211.7655 172.635,211.698 172.935,211.698 C173.229,211.698 173.502,211.7655 173.754,211.9005 C174.006,212.0355 174.21,212.241 174.366,212.517 C174.522,212.793 174.6,213.129 174.6,213.525 C174.6,213.921 174.5205,214.257 174.3615,214.533 C174.2025,214.809 173.994,215.016 173.736,215.154 C173.478,215.292 173.202,215.361 172.908,215.361 Z M178.497,216.072 C178.833,216.072 179.1405,216.0015 179.4195,215.8605 C179.6985,215.7195 179.916,215.523 180.072,215.271 L180.072,215.271 L180.072,216 L180.891,216 L180.891,211.068 L180.072,211.068 L180.072,213.777 C180.072,214.293 179.946,214.686 179.694,214.956 C179.442,215.226 179.097,215.361 178.659,215.361 C178.233,215.361 177.897,215.2305 177.651,214.9695 C177.405,214.7085 177.282,214.335 177.282,213.849 L177.282,213.849 L177.282,211.068 L176.472,211.068 L176.472,213.957 C176.472,214.413 176.5605,214.8 176.7375,215.118 C176.9145,215.436 177.156,215.6745 177.462,215.8335 C177.768,215.9925 178.113,216.072 178.497,216.072 Z M183.096,216 L183.096,213.318 C183.096,212.322 183.555,211.824 184.473,211.824 L184.473,211.824 L184.689,211.824 L184.689,210.978 C184.305,210.978 183.9795,211.056 183.7125,211.212 C183.4455,211.368 183.24,211.587 183.096,211.869 L183.096,211.869 L183.096,211.068 L182.277,211.068 L182.277,216 L183.096,216 Z M187.38,216.081 C187.734,216.081 188.0475,216.0195 188.3205,215.8965 C188.5935,215.7735 188.805,215.604 188.955,215.388 C189.105,215.172 189.18,214.929 189.18,214.659 C189.174,214.359 189.0915,214.116 188.9325,213.93 C188.7735,213.744 188.583,213.6045 188.361,213.5115 C188.139,213.4185 187.851,213.324 187.497,213.228 C187.215,213.15 186.9945,213.0795 186.8355,213.0165 C186.6765,212.9535 186.5445,212.8695 186.4395,212.7645 C186.3345,212.6595 186.282,212.526 186.282,212.364 C186.282,212.16 186.369,211.995 186.543,211.869 C186.717,211.743 186.951,211.68 187.245,211.68 C187.563,211.68 187.8165,211.758 188.0055,211.914 C188.1945,212.07 188.298,212.277 188.316,212.535 L188.316,212.535 L189.135,212.535 C189.111,212.055 188.931,211.677 188.595,211.401 C188.259,211.125 187.818,210.987 187.272,210.987 C186.918,210.987 186.603,211.0485 186.327,211.1715 C186.051,211.2945 185.838,211.461 185.688,211.671 C185.538,211.881 185.463,212.112 185.463,212.364 C185.463,212.682 185.5455,212.9385 185.7105,213.1335 C185.8755,213.3285 186.0735,213.4755 186.3045,213.5745 C186.5355,213.6735 186.834,213.771 187.2,213.867 C187.602,213.969 187.899,214.0725 188.091,214.1775 C188.283,214.2825 188.379,214.443 188.379,214.659 C188.379,214.869 188.289,215.043 188.109,215.181 C187.929,215.319 187.683,215.388 187.371,215.388 C187.035,215.388 186.7635,215.31 186.5565,215.154 C186.3495,214.998 186.234,214.797 186.21,214.551 L186.21,214.551 L185.364,214.551 C185.382,214.851 185.478,215.1165 185.652,215.3475 C185.826,215.5785 186.063,215.7585 186.363,215.8875 C186.663,216.0165 187.002,216.081 187.38,216.081 Z M193.554,218.34 L193.554,215.091 C193.722,215.373 193.9665,215.6085 194.2875,215.7975 C194.6085,215.9865 194.979,216.081 195.399,216.081 C195.837,216.081 196.2345,215.973 196.5915,215.757 C196.9485,215.541 197.229,215.238 197.433,214.848 C197.637,214.458 197.739,214.014 197.739,213.516 C197.739,213.012 197.637,212.5695 197.433,212.1885 C197.229,211.8075 196.9485,211.512 196.5915,211.302 C196.2345,211.092 195.837,210.987 195.399,210.987 C194.973,210.987 194.5995,211.0815 194.2785,211.2705 C193.9575,211.4595 193.716,211.695 193.554,211.977 L193.554,211.977 L193.554,211.068 L192.735,211.068 L192.735,218.34 L193.554,218.34 Z M195.228,215.361 C194.928,215.361 194.6505,215.2875 194.3955,215.1405 C194.1405,214.9935 193.9365,214.7805 193.7835,214.5015 C193.6305,214.2225 193.554,213.897 193.554,213.525 C193.554,213.159 193.6305,212.8365 193.7835,212.5575 C193.9365,212.2785 194.1405,212.0655 194.3955,211.9185 C194.6505,211.7715 194.928,211.698 195.228,211.698 C195.534,211.698 195.8145,211.77 196.0695,211.914 C196.3245,212.058 196.527,212.268 196.677,212.544 C196.827,212.82 196.902,213.144 196.902,213.516 C196.902,213.894 196.827,214.2225 196.677,214.5015 C196.527,214.7805 196.3245,214.9935 196.0695,215.1405 C195.8145,215.2875 195.534,215.361 195.228,215.361 Z M200.952,216.081 C201.54,216.081 202.032,215.9325 202.428,215.6355 C202.824,215.3385 203.088,214.953 203.22,214.479 L203.22,214.479 L202.338,214.479 C202.242,214.755 202.0755,214.9755 201.8385,215.1405 C201.6015,215.3055 201.306,215.388 200.952,215.388 C200.52,215.388 200.1525,215.2515 199.8495,214.9785 C199.5465,214.7055 199.38,214.326 199.35,213.84 L199.35,213.84 L203.292,213.84 C203.31,213.666 203.319,213.501 203.319,213.345 C203.319,212.895 203.2215,212.4915 203.0265,212.1345 C202.8315,211.7775 202.554,211.497 202.194,211.293 C201.834,211.089 201.42,210.987 200.952,210.987 C200.472,210.987 200.0475,211.0905 199.6785,211.2975 C199.3095,211.5045 199.023,211.8 198.819,212.184 C198.615,212.568 198.513,213.015 198.513,213.525 C198.513,214.035 198.618,214.4835 198.828,214.8705 C199.038,215.2575 199.3275,215.556 199.6965,215.766 C200.0655,215.976 200.484,216.081 200.952,216.081 Z M202.473,213.174 L199.359,213.174 C199.401,212.706 199.5675,212.34 199.8585,212.076 C200.1495,211.812 200.502,211.68 200.916,211.68 C201.204,211.68 201.4665,211.7385 201.7035,211.8555 C201.9405,211.9725 202.128,212.1435 202.266,212.3685 C202.404,212.5935 202.473,212.862 202.473,213.174 L202.473,213.174 Z M205.218,216 L205.218,213.318 C205.218,212.322 205.677,211.824 206.595,211.824 L206.595,211.824 L206.811,211.824 L206.811,210.978 C206.427,210.978 206.1015,211.056 205.8345,211.212 C205.5675,211.368 205.362,211.587 205.218,211.869 L205.218,211.869 L205.218,211.068 L204.399,211.068 L204.399,216 L205.218,216 Z M211.968,216 L213.156,212.085 L214.344,216 L215.19,216 L216.729,211.068 L215.919,211.068 L214.803,215.217 L213.606,211.068 L212.769,211.068 L211.545,215.208 L210.411,211.068 L209.574,211.068 L211.122,216 L211.968,216 Z M219.672,216.081 C220.26,216.081 220.752,215.9325 221.148,215.6355 C221.544,215.3385 221.808,214.953 221.94,214.479 L221.94,214.479 L221.058,214.479 C220.962,214.755 220.7955,214.9755 220.5585,215.1405 C220.3215,215.3055 220.026,215.388 219.672,215.388 C219.24,215.388 218.8725,215.2515 218.5695,214.9785 C218.2665,214.7055 218.1,214.326 218.07,213.84 L218.07,213.84 L222.012,213.84 C222.03,213.666 222.039,213.501 222.039,213.345 C222.039,212.895 221.9415,212.4915 221.7465,212.1345 C221.5515,211.7775 221.274,211.497 220.914,211.293 C220.554,211.089 220.14,210.987 219.672,210.987 C219.192,210.987 218.7675,211.0905 218.3985,211.2975 C218.0295,211.5045 217.743,211.8 217.539,212.184 C217.335,212.568 217.233,213.015 217.233,213.525 C217.233,214.035 217.338,214.4835 217.548,214.8705 C217.758,215.2575 218.0475,215.556 218.4165,215.766 C218.7855,215.976 219.204,216.081 219.672,216.081 Z M221.193,213.174 L218.079,213.174 C218.121,212.706 218.2875,212.34 218.5785,212.076 C218.8695,211.812 219.222,211.68 219.636,211.68 C219.924,211.68 220.1865,211.7385 220.4235,211.8555 C220.6605,211.9725 220.848,212.1435 220.986,212.3685 C221.124,212.5935 221.193,212.862 221.193,213.174 L221.193,213.174 Z M225.252,216.081 C225.84,216.081 226.332,215.9325 226.728,215.6355 C227.124,215.3385 227.388,214.953 227.52,214.479 L227.52,214.479 L226.638,214.479 C226.542,214.755 226.3755,214.9755 226.1385,215.1405 C225.9015,215.3055 225.606,215.388 225.252,215.388 C224.82,215.388 224.4525,215.2515 224.1495,214.9785 C223.8465,214.7055 223.68,214.326 223.65,213.84 L223.65,213.84 L227.592,213.84 C227.61,213.666 227.619,213.501 227.619,213.345 C227.619,212.895 227.5215,212.4915 227.3265,212.1345 C227.1315,211.7775 226.854,211.497 226.494,211.293 C226.134,211.089 225.72,210.987 225.252,210.987 C224.772,210.987 224.3475,211.0905 223.9785,211.2975 C223.6095,211.5045 223.323,211.8 223.119,212.184 C222.915,212.568 222.813,213.015 222.813,213.525 C222.813,214.035 222.918,214.4835 223.128,214.8705 C223.338,215.2575 223.6275,215.556 223.9965,215.766 C224.3655,215.976 224.784,216.081 225.252,216.081 Z M226.773,213.174 L223.659,213.174 C223.701,212.706 223.8675,212.34 224.1585,212.076 C224.4495,211.812 224.802,211.68 225.216,211.68 C225.504,211.68 225.7665,211.7385 226.0035,211.8555 C226.2405,211.9725 226.428,212.1435 226.566,212.3685 C226.704,212.5935 226.773,212.862 226.773,213.174 L226.773,213.174 Z M229.518,216 L229.518,213.822 L231.453,216 L232.569,216 L230.238,213.525 L232.56,211.068 L231.417,211.068 L229.518,213.255 L229.518,209.34 L228.699,209.34 L228.699,216 L229.518,216 Z M241.222711,214.646484 L243.121148,212.748047 L241.222711,210.849609 L241.222711,212.422852 L236.07232,212.422852 L236.07232,213.073242 L241.222711,213.073242 L241.222711,214.646484 Z" id="Workinghoursperweek→" fill="#FFFFFF" fill-rule="nonzero"></path>
                <path d="M96.341,197 L96.341,190.493 L94.649,190.493 L94.649,191.24 L95.513,191.24 L95.513,197 L96.341,197 Z M100.013,197 C100.847,197 101.432,196.709 101.768,196.127 C102.104,195.545 102.272,194.729 102.272,193.679 C102.272,192.647 102.104,191.8415 101.768,191.2625 C101.432,190.6835 100.847,190.394 100.013,190.394 C99.173,190.394 98.585,190.6835 98.249,191.2625 C97.913,191.8415 97.745,192.647 97.745,193.679 C97.745,194.729 97.913,195.545 98.249,196.127 C98.585,196.709 99.173,197 100.013,197 Z M100.013,196.253 C99.605,196.253 99.2945,196.142 99.0815,195.92 C98.8685,195.698 98.7275,195.404 98.6585,195.038 C98.5895,194.672 98.555,194.219 98.555,193.679 C98.555,193.157 98.5895,192.7145 98.6585,192.3515 C98.7275,191.9885 98.8685,191.696 99.0815,191.474 C99.2945,191.252 99.605,191.141 100.013,191.141 C100.415,191.141 100.7225,191.252 100.9355,191.474 C101.1485,191.696 101.2895,191.9885 101.3585,192.3515 C101.4275,192.7145 101.462,193.157 101.462,193.679 C101.462,194.219 101.4275,194.672 101.3585,195.038 C101.2895,195.404 101.1485,195.698 100.9355,195.92 C100.7225,196.142 100.415,196.253 100.013,196.253 Z" id="10" fill="#FFFFFF" fill-rule="nonzero"></path>
                <path d="M43.133,197 C43.967,197 44.552,196.709 44.888,196.127 C45.224,195.545 45.392,194.729 45.392,193.679 C45.392,192.647 45.224,191.8415 44.888,191.2625 C44.552,190.6835 43.967,190.394 43.133,190.394 C42.293,190.394 41.705,190.6835 41.369,191.2625 C41.033,191.8415 40.865,192.647 40.865,193.679 C40.865,194.729 41.033,195.545 41.369,196.127 C41.705,196.709 42.293,197 43.133,197 Z M43.133,196.253 C42.725,196.253 42.4145,196.142 42.2015,195.92 C41.9885,195.698 41.8475,195.404 41.7785,195.038 C41.7095,194.672 41.675,194.219 41.675,193.679 C41.675,193.157 41.7095,192.7145 41.7785,192.3515 C41.8475,191.9885 41.9885,191.696 42.2015,191.474 C42.4145,191.252 42.725,191.141 43.133,191.141 C43.535,191.141 43.8425,191.252 44.0555,191.474 C44.2685,191.696 44.4095,191.9885 44.4785,192.3515 C44.5475,192.7145 44.582,193.157 44.582,193.679 C44.582,194.219 44.5475,194.672 44.4785,195.038 C44.4095,195.404 44.2685,195.698 44.0555,195.92 C43.8425,196.142 43.535,196.253 43.133,196.253 Z" id="0" fill="#FFFFFF" fill-rule="nonzero"></path>
                <path d="M319.205,197.018 C319.697,197.018 320.1095,196.919 320.4425,196.721 C320.7755,196.523 321.023,196.253 321.185,195.911 C321.347,195.569 321.428,195.182 321.428,194.75 C321.428,194.384 321.3605,194.0375 321.2255,193.7105 C321.0905,193.3835 320.867,193.1165 320.555,192.9095 C320.243,192.7025 319.838,192.599 319.34,192.599 C319.028,192.599 318.737,192.6605 318.467,192.7835 C318.197,192.9065 317.993,193.064 317.855,193.256 L317.855,193.256 L317.855,191.204 L321.014,191.204 L321.014,190.484 L317.099,190.484 L317.099,194.156 L317.873,194.156 C317.981,193.892 318.1535,193.6835 318.3905,193.5305 C318.6275,193.3775 318.905,193.301 319.223,193.301 C319.691,193.301 320.045,193.4285 320.285,193.6835 C320.525,193.9385 320.645,194.3 320.645,194.768 C320.645,195.236 320.525,195.6125 320.285,195.8975 C320.045,196.1825 319.688,196.325 319.214,196.325 C318.83,196.325 318.512,196.229 318.26,196.037 C318.008,195.845 317.843,195.578 317.765,195.236 L317.765,195.236 L316.964,195.236 C317.048,195.776 317.285,196.208 317.675,196.532 C318.065,196.856 318.575,197.018 319.205,197.018 Z M324.785,197 C325.619,197 326.204,196.709 326.54,196.127 C326.876,195.545 327.044,194.729 327.044,193.679 C327.044,192.647 326.876,191.8415 326.54,191.2625 C326.204,190.6835 325.619,190.394 324.785,190.394 C323.945,190.394 323.357,190.6835 323.021,191.2625 C322.685,191.8415 322.517,192.647 322.517,193.679 C322.517,194.729 322.685,195.545 323.021,196.127 C323.357,196.709 323.945,197 324.785,197 Z M324.785,196.253 C324.377,196.253 324.0665,196.142 323.8535,195.92 C323.6405,195.698 323.4995,195.404 323.4305,195.038 C323.3615,194.672 323.327,194.219 323.327,193.679 C323.327,193.157 323.3615,192.7145 323.4305,192.3515 C323.4995,191.9885 323.6405,191.696 323.8535,191.474 C324.0665,191.252 324.377,191.141 324.785,191.141 C325.187,191.141 325.4945,191.252 325.7075,191.474 C325.9205,191.696 326.0615,191.9885 326.1305,192.3515 C326.1995,192.7145 326.234,193.157 326.234,193.679 C326.234,194.219 326.1995,194.672 326.1305,195.038 C326.0615,195.404 325.9205,195.698 325.7075,195.92 C325.4945,196.142 325.187,196.253 324.785,196.253 Z" id="50" fill="#FFFFFF" fill-rule="nonzero"></path>
                <path d="M263.807,197 L263.807,195.551 L264.707,195.551 L264.707,194.84 L263.807,194.84 L263.807,190.556 L262.826,190.556 L259.667,194.93 L259.667,195.551 L262.997,195.551 L262.997,197 L263.807,197 Z M263.033,194.84 L260.612,194.84 L263.033,191.411 L263.033,194.84 Z M267.794,197 C268.628,197 269.213,196.709 269.549,196.127 C269.885,195.545 270.053,194.729 270.053,193.679 C270.053,192.647 269.885,191.8415 269.549,191.2625 C269.213,190.6835 268.628,190.394 267.794,190.394 C266.954,190.394 266.366,190.6835 266.03,191.2625 C265.694,191.8415 265.526,192.647 265.526,193.679 C265.526,194.729 265.694,195.545 266.03,196.127 C266.366,196.709 266.954,197 267.794,197 Z M267.794,196.253 C267.386,196.253 267.0755,196.142 266.8625,195.92 C266.6495,195.698 266.5085,195.404 266.4395,195.038 C266.3705,194.672 266.336,194.219 266.336,193.679 C266.336,193.157 266.3705,192.7145 266.4395,192.3515 C266.5085,191.9885 266.6495,191.696 266.8625,191.474 C267.0755,191.252 267.386,191.141 267.794,191.141 C268.196,191.141 268.5035,191.252 268.7165,191.474 C268.9295,191.696 269.0705,191.9885 269.1395,192.3515 C269.2085,192.7145 269.243,193.157 269.243,193.679 C269.243,194.219 269.2085,194.672 269.1395,195.038 C269.0705,195.404 268.9295,195.698 268.7165,195.92 C268.5035,196.142 268.196,196.253 267.794,196.253 Z" id="40" fill="#FFFFFF" fill-rule="nonzero"></path>
                <path d="M205.998,197.045 C206.436,197.045 206.811,196.967 207.123,196.811 C207.435,196.655 207.669,196.4405 207.825,196.1675 C207.981,195.8945 208.059,195.587 208.059,195.245 C208.059,194.789 207.945,194.42 207.717,194.138 C207.489,193.856 207.18,193.667 206.79,193.571 L206.79,193.571 L206.79,193.526 C207.132,193.448 207.4095,193.274 207.6225,193.004 C207.8355,192.734 207.942,192.413 207.942,192.041 C207.942,191.723 207.8655,191.438 207.7125,191.186 C207.5595,190.934 207.3345,190.7345 207.0375,190.5875 C206.7405,190.4405 206.388,190.367 205.98,190.367 C205.368,190.367 204.87,190.523 204.486,190.835 C204.102,191.147 203.889,191.579 203.847,192.131 L203.847,192.131 L204.648,192.131 C204.69,191.807 204.825,191.549 205.053,191.357 C205.281,191.165 205.581,191.069 205.953,191.069 C206.337,191.069 206.6325,191.165 206.8395,191.357 C207.0465,191.549 207.15,191.804 207.15,192.122 C207.15,192.494 207.009,192.7685 206.727,192.9455 C206.445,193.1225 206.028,193.214 205.476,193.22 L205.476,193.22 L205.26,193.22 L205.26,193.904 L205.467,193.904 C206.073,193.904 206.526,194.003 206.826,194.201 C207.126,194.399 207.276,194.723 207.276,195.173 C207.276,195.521 207.1665,195.8045 206.9475,196.0235 C206.7285,196.2425 206.409,196.352 205.989,196.352 C205.569,196.352 205.233,196.238 204.981,196.01 C204.729,195.782 204.582,195.488 204.54,195.128 L204.54,195.128 L203.748,195.128 C203.796,195.74 204.024,196.2125 204.432,196.5455 C204.84,196.8785 205.362,197.045 205.998,197.045 Z M211.434,197 C212.268,197 212.853,196.709 213.189,196.127 C213.525,195.545 213.693,194.729 213.693,193.679 C213.693,192.647 213.525,191.8415 213.189,191.2625 C212.853,190.6835 212.268,190.394 211.434,190.394 C210.594,190.394 210.006,190.6835 209.67,191.2625 C209.334,191.8415 209.166,192.647 209.166,193.679 C209.166,194.729 209.334,195.545 209.67,196.127 C210.006,196.709 210.594,197 211.434,197 Z M211.434,196.253 C211.026,196.253 210.7155,196.142 210.5025,195.92 C210.2895,195.698 210.1485,195.404 210.0795,195.038 C210.0105,194.672 209.976,194.219 209.976,193.679 C209.976,193.157 210.0105,192.7145 210.0795,192.3515 C210.1485,191.9885 210.2895,191.696 210.5025,191.474 C210.7155,191.252 211.026,191.141 211.434,191.141 C211.836,191.141 212.1435,191.252 212.3565,191.474 C212.5695,191.696 212.7105,191.9885 212.7795,192.3515 C212.8485,192.7145 212.883,193.157 212.883,193.679 C212.883,194.219 212.8485,194.672 212.7795,195.038 C212.7105,195.404 212.5695,195.698 212.3565,195.92 C212.1435,196.142 211.836,196.253 211.434,196.253 Z" id="30" fill="#FFFFFF" fill-rule="nonzero"></path>
                <path d="M153.095,196.928 L153.095,196.244 L149.999,196.244 C150.587,195.77 151.07,195.3545 151.448,194.9975 C151.826,194.6405 152.1635,194.2265 152.4605,193.7555 C152.7575,193.2845 152.906,192.8 152.906,192.302 C152.906,191.702 152.7245,191.231 152.3615,190.889 C151.9985,190.547 151.508,190.376 150.89,190.376 C150.284,190.376 149.789,190.559 149.405,190.925 C149.021,191.291 148.817,191.81 148.793,192.482 L148.793,192.482 L149.585,192.482 C149.603,192.056 149.7245,191.7155 149.9495,191.4605 C150.1745,191.2055 150.491,191.078 150.899,191.078 C151.319,191.078 151.6235,191.1905 151.8125,191.4155 C152.0015,191.6405 152.096,191.948 152.096,192.338 C152.096,192.752 151.9475,193.1735 151.6505,193.6025 C151.3535,194.0315 150.989,194.4425 150.557,194.8355 C150.125,195.2285 149.528,195.731 148.766,196.343 L148.766,196.343 L148.766,196.928 L153.095,196.928 Z M156.308,197 C157.142,197 157.727,196.709 158.063,196.127 C158.399,195.545 158.567,194.729 158.567,193.679 C158.567,192.647 158.399,191.8415 158.063,191.2625 C157.727,190.6835 157.142,190.394 156.308,190.394 C155.468,190.394 154.88,190.6835 154.544,191.2625 C154.208,191.8415 154.04,192.647 154.04,193.679 C154.04,194.729 154.208,195.545 154.544,196.127 C154.88,196.709 155.468,197 156.308,197 Z M156.308,196.253 C155.9,196.253 155.5895,196.142 155.3765,195.92 C155.1635,195.698 155.0225,195.404 154.9535,195.038 C154.8845,194.672 154.85,194.219 154.85,193.679 C154.85,193.157 154.8845,192.7145 154.9535,192.3515 C155.0225,191.9885 155.1635,191.696 155.3765,191.474 C155.5895,191.252 155.9,191.141 156.308,191.141 C156.71,191.141 157.0175,191.252 157.2305,191.474 C157.4435,191.696 157.5845,191.9885 157.6535,192.3515 C157.7225,192.7145 157.757,193.157 157.757,193.679 C157.757,194.219 157.7225,194.672 157.6535,195.038 C157.5845,195.404 157.4435,195.698 157.2305,195.92 C157.0175,196.142 156.71,196.253 156.308,196.253 Z" id="20" fill="#FFFFFF" fill-rule="nonzero"></path>
            </g>
        </g>
    </g>
</svg>